<svg width="58" height="58" viewBox="0 0 58 58" fill="none" xmlns="http://www.w3.org/2000/svg">
<g clip-path="url(#clip0_1280_1864)">
<path d="M49.5572 8.59554C49.519 8.55739 49.4809 8.51925 49.4555 8.49382C44.0388 3.02634 36.6641 -0.0252724 28.9715 0.000157671C12.976 0.000157671 0.0065918 12.9695 0.0065918 28.9778C0.0065918 36.6577 3.05821 44.0324 8.48754 49.4617C19.7785 60.8036 38.1136 60.8544 49.4555 49.5635C60.7973 38.2725 60.8482 19.9374 49.5572 8.59554ZM28.9715 55.3997C14.4 55.3997 2.53689 43.5492 2.53689 28.9778C2.53689 14.4063 14.4 2.54317 28.9715 2.54317C43.543 2.54317 55.3934 14.3936 55.3934 28.9651C55.3934 43.5365 43.543 55.3997 28.9715 55.3997Z" fill="black"/>
<path d="M35.4051 23.3576H32.8875C32.7095 22.2768 32.2263 21.2596 31.5016 20.4331H35.3924C36.1044 20.4331 36.6766 19.861 36.6766 19.1616C36.6766 18.4623 36.1044 17.8901 35.4051 17.8901H22.5374C21.8381 17.8901 21.2659 18.4623 21.2659 19.1616C21.2659 19.861 21.8381 20.4331 22.5374 20.4331H26.2248C28.0685 20.4459 29.696 21.6156 30.2809 23.3576H22.5374C21.8381 23.3576 21.2659 23.9298 21.2659 24.6291C21.2659 25.3284 21.8381 25.9006 22.5374 25.9006H30.2809C30.0775 26.5618 29.7087 27.1721 29.2256 27.668C28.4372 28.4818 27.3564 28.9395 26.2248 28.9522H22.5374C21.8635 28.9268 21.2914 29.4608 21.2659 30.1347C21.2532 30.4908 21.3931 30.8468 21.6601 31.0884L30.8658 39.7855C31.3744 40.2686 32.1882 40.2432 32.6586 39.7219C33.1291 39.2387 33.1164 38.4631 32.6332 37.9926C32.6205 37.9799 32.6078 37.9799 32.6078 37.9672L25.7289 31.4953H26.2121C28.0176 31.4825 29.7469 30.7578 31.0184 29.4736C31.9974 28.5072 32.6586 27.2611 32.8875 25.9006H35.4051C36.1044 25.9006 36.6766 25.3284 36.6766 24.6291C36.6766 23.9298 36.1044 23.3576 35.4051 23.3576Z" fill="black"/>
<path d="M28.9714 6.79004C16.7396 6.79004 6.79639 16.7332 6.79639 28.9651C6.79639 41.197 16.7396 51.1402 28.9714 51.1402C41.2033 51.1402 51.1465 41.197 51.1465 28.9651C51.1465 16.7332 41.2033 6.79004 28.9714 6.79004ZM28.9714 48.5972C18.1509 48.5972 9.3394 39.7856 9.3394 28.9651C9.3394 18.1446 18.1509 9.33305 28.9714 9.33305C39.792 9.33305 48.6035 18.1446 48.6035 28.9651C48.6035 39.7856 39.792 48.5972 28.9714 48.5972Z" fill="black"/>
</g>
<defs>
<clipPath id="clip0_1280_1864">
<rect width="58" height="58" fill="white"/>
</clipPath>
</defs>
</svg>
