<svg width="12" height="12" viewBox="0 0 12 12" fill="none" xmlns="http://www.w3.org/2000/svg">
<path d="M0.166016 10.0827C0.166016 11.0743 0.924349 11.8327 1.91602 11.8327H10.0827C11.0743 11.8327 11.8327 11.0743 11.8327 10.0827V5.41602H0.166016V10.0827ZM10.0827 1.33268H8.91602V0.749349C8.91602 0.399349 8.68268 0.166016 8.33268 0.166016C7.98268 0.166016 7.74935 0.399349 7.74935 0.749349V1.33268H4.24935V0.749349C4.24935 0.399349 4.01602 0.166016 3.66602 0.166016C3.31602 0.166016 3.08268 0.399349 3.08268 0.749349V1.33268H1.91602C0.924349 1.33268 0.166016 2.09102 0.166016 3.08268V4.24935H11.8327V3.08268C11.8327 2.09102 11.0743 1.33268 10.0827 1.33268Z" fill="#545454"/>
</svg>
