<svg width="53" height="53" viewBox="0 0 53 53" fill="none" xmlns="http://www.w3.org/2000/svg">
<path d="M15.631 33.8561H18.7366C18.7366 30.4306 21.5222 27.645 24.9477 27.645V24.5394C21.5222 24.5394 18.7366 21.7538 18.7366 18.3283H15.631C15.631 21.7538 12.8455 24.5394 9.41992 24.5394V27.645C12.8455 27.645 15.631 30.4306 15.631 33.8561Z" fill="#62B5EC"/>
<path d="M6.31464 52.4894H9.4202C9.4202 49.0639 12.2058 46.2783 15.6313 46.2783V43.1727C12.2058 43.1727 9.4202 40.3871 9.4202 36.9616H6.31464C6.31464 40.3871 3.42554 43.1727 0 43.1727V46.2783C3.42554 46.2783 6.31464 49.0639 6.31464 52.4894Z" fill="#62B5EC"/>
<path d="M50.4078 35.5999C51.293 33.1709 50.0338 30.5068 47.6237 29.6284L45.9162 29.0066C45.9316 27.6271 45.3066 26.2842 44.215 25.3822L53.0012 1.5778L50.0837 0.510315L41.2956 24.3195C39.8956 24.3093 38.5496 24.9221 37.6595 26.0027L35.9505 25.381C34.7844 24.9549 33.5182 25.0095 32.3885 25.5356C31.2618 26.0618 30.4066 26.9959 29.9805 28.165L29.4492 29.6243L49.8765 37.059L50.4078 35.5999Z" fill="#62B5EC"/>
<path d="M18.9948 38.4478L16.4336 38.2142L17.4192 40.5904C17.9545 41.8778 18.6278 43.1061 19.4208 44.2403C21.3846 47.0533 24.5371 48.8759 28.0537 49.293V51.137L29.1151 51.4903C30.5739 51.9786 32.0266 52.3258 33.5112 52.2151C38.1134 52.2151 42.4684 49.9466 45.1646 46.1465C46.5349 44.2163 47.6753 42.1179 48.6745 39.9261L28.3807 32.5397C26.9416 36.3951 23.0913 38.8095 18.9948 38.4478Z" fill="#62B5EC"/>
</svg>
