<svg width="17" height="17" viewBox="0 0 17 17" fill="none" xmlns="http://www.w3.org/2000/svg">
<g clip-path="url(#clip0_1280_2153)">
<path d="M0 15H2.3615L5.27727 16.7494L5.86037 15H10V8H0V15ZM1 9H9V14H5.13963L4.72277 15.2506L2.6385 14H1V9Z" fill="url(#paint0_linear_1280_2153)"/>
<path d="M2 10H8V11H2V10Z" fill="url(#paint1_linear_1280_2153)"/>
<path d="M2 12H8V13H2V12Z" fill="url(#paint2_linear_1280_2153)"/>
<path d="M7 0V7H11.1396L11.7228 8.74943L14.6385 7H17V0H7ZM16 6H14.3615L12.2773 7.25057L11.8604 6H8V1H16V6Z" fill="url(#paint3_linear_1280_2153)"/>
<path d="M9 2H15V3H9V2Z" fill="url(#paint4_linear_1280_2153)"/>
<path d="M9 4H15V5H9V4Z" fill="url(#paint5_linear_1280_2153)"/>
<path d="M6 6.00001C6 4.87161 5.37367 3.88688 4.45053 3.37478C5.6513 2.12684 4.74977 -0.00502432 2.99997 9.01315e-06C1.25027 -0.00505765 0.3486 2.12721 1.54947 3.37478C0.6263 3.88688 0 4.87161 0 6.00001V7.00001H6V6.00001ZM2 2.00001C2 1.44861 2.4486 1.00001 3 1.00001C4.3248 1.05028 4.32447 2.94994 3 3.00001C2.4486 3.00001 2 2.55141 2 2.00001ZM1 6.00001C1.10087 3.34971 4.90007 3.35174 5 6.00001H1Z" fill="url(#paint6_linear_1280_2153)"/>
<path d="M15.4505 13.3748C16.6513 12.1268 15.7498 9.99498 14 10C12.2503 9.99494 11.3486 12.1272 12.5495 13.3748C11.6263 13.8869 11 14.8716 11 16V17H17V16C17 14.8716 16.3737 13.8869 15.4505 13.3748ZM13 12C13 11.4486 13.4486 11 14 11C15.3248 11.0503 15.3245 12.9499 14 13C13.4486 13 13 12.5514 13 12ZM12 16C12.1009 13.3497 15.9001 13.3517 16 16H12Z" fill="url(#paint7_linear_1280_2153)"/>
</g>
<defs>
<linearGradient id="paint0_linear_1280_2153" x1="0.882353" y1="7.22799" x2="8.02854" y2="17.9304" gradientUnits="userSpaceOnUse">
<stop stop-color="#7D5AB4"/>
<stop offset="1" stop-color="#6985CD"/>
</linearGradient>
<linearGradient id="paint1_linear_1280_2153" x1="2.52941" y1="9.91176" x2="2.75078" y2="11.6522" gradientUnits="userSpaceOnUse">
<stop stop-color="#7D5AB4"/>
<stop offset="1" stop-color="#6985CD"/>
</linearGradient>
<linearGradient id="paint2_linear_1280_2153" x1="2.52941" y1="11.9118" x2="2.75078" y2="13.6522" gradientUnits="userSpaceOnUse">
<stop stop-color="#7D5AB4"/>
<stop offset="1" stop-color="#6985CD"/>
</linearGradient>
<linearGradient id="paint3_linear_1280_2153" x1="7.88235" y1="-0.772008" x2="15.0285" y2="9.93037" gradientUnits="userSpaceOnUse">
<stop stop-color="#7D5AB4"/>
<stop offset="1" stop-color="#6985CD"/>
</linearGradient>
<linearGradient id="paint4_linear_1280_2153" x1="9.52941" y1="1.91176" x2="9.75078" y2="3.65218" gradientUnits="userSpaceOnUse">
<stop stop-color="#7D5AB4"/>
<stop offset="1" stop-color="#6985CD"/>
</linearGradient>
<linearGradient id="paint5_linear_1280_2153" x1="9.52941" y1="3.91176" x2="9.75078" y2="5.65218" gradientUnits="userSpaceOnUse">
<stop stop-color="#7D5AB4"/>
<stop offset="1" stop-color="#6985CD"/>
</linearGradient>
<linearGradient id="paint6_linear_1280_2153" x1="0.529412" y1="-0.617647" x2="6.67792" y2="6.28806" gradientUnits="userSpaceOnUse">
<stop stop-color="#7D5AB4"/>
<stop offset="1" stop-color="#6985CD"/>
</linearGradient>
<linearGradient id="paint7_linear_1280_2153" x1="11.5294" y1="9.38235" x2="17.6779" y2="16.2881" gradientUnits="userSpaceOnUse">
<stop stop-color="#7D5AB4"/>
<stop offset="1" stop-color="#6985CD"/>
</linearGradient>
<clipPath id="clip0_1280_2153">
<rect width="17" height="17" fill="white"/>
</clipPath>
</defs>
</svg>
