<svg width="58" height="58" viewBox="0 0 58 58" fill="none" xmlns="http://www.w3.org/2000/svg">
<path d="M54.841 43.767C54.2015 43.2364 53.478 42.7897 52.6929 42.4288C53.7047 41.2542 54.3186 39.7274 54.3186 38.0589C54.3186 34.3613 51.3104 31.3533 47.6129 31.3533C43.9154 31.3533 40.9072 34.3614 40.9072 38.0589C40.9072 39.7274 41.521 41.254 42.5329 42.4287C41.7477 42.7896 41.0241 43.2364 40.3845 43.767C40.0727 44.0257 39.7835 44.3035 39.5152 44.5965C38.3157 43.7668 36.9682 43.0965 35.512 42.5981C37.7672 40.7246 39.2057 37.9002 39.2057 34.7462C39.2057 29.1188 34.6275 24.5405 28.9999 24.5405C23.3725 24.5405 18.7943 29.1188 18.7943 34.7462C18.7943 37.9002 20.2327 40.7246 22.4879 42.5981C21.0317 43.0963 19.6841 43.7668 18.4846 44.5965C18.2166 44.3032 17.9272 44.0257 17.6153 43.7668C16.9758 43.2362 16.2523 42.7896 15.4671 42.4287C16.4789 41.254 17.0928 39.7272 17.0928 38.0588C17.0928 34.3612 14.0846 31.3531 10.3871 31.3531C6.6896 31.3531 3.68141 34.3614 3.68141 38.0589C3.68141 39.7274 4.29529 41.254 5.30711 42.4287C4.52185 42.7896 3.79832 43.2364 3.15873 43.767C1.12171 45.4572 0 47.9132 0 50.6827V57.9998H58V50.6827C58 47.9132 56.8782 45.4572 54.841 43.767ZM47.6129 34.7517C49.4366 34.7517 50.9202 36.2353 50.9202 38.0589C50.9202 39.8825 49.4365 41.3662 47.6129 41.3662C45.7893 41.3662 44.3057 39.8825 44.3057 38.0589C44.3057 36.2353 45.7892 34.7517 47.6129 34.7517ZM28.9999 27.9391C32.7536 27.9391 35.8073 30.9928 35.8073 34.7463C35.8073 38.4997 32.7536 41.5534 28.9999 41.5534C25.2464 41.5534 22.1927 38.4997 22.1927 34.7463C22.1927 30.9928 25.2464 27.9391 28.9999 27.9391ZM10.3871 34.7517C12.2108 34.7517 13.6943 36.2353 13.6943 38.0589C13.6943 39.8825 12.2107 41.3662 10.3871 41.3662C8.5635 41.3662 7.07985 39.8825 7.07985 38.0589C7.07985 36.2353 8.5635 34.7517 10.3871 34.7517ZM3.39844 54.6014V50.6827C3.39844 46.5946 6.90834 44.7647 10.387 44.7647C12.4828 44.7647 14.5881 45.4304 15.9313 46.8532C14.0363 48.9904 12.9094 51.6197 12.6166 54.6014H3.39844ZM16.0352 54.6014C16.8713 47.951 22.9609 44.9519 28.9998 44.9519C35.0389 44.9519 41.1287 47.951 41.9648 54.6014H16.0352ZM54.6016 54.6014H45.3834C45.0905 51.6195 43.9633 48.99 42.068 46.8526C43.4116 45.4303 45.5171 44.7646 47.6128 44.7646C51.0915 44.7646 54.6016 46.5945 54.6016 50.6826V54.6014Z" fill="black"/>
<path d="M20.95 21.5385L22.779 22.6512L28.9999 19.3806L35.2184 22.6497L37.0504 21.5413L35.8288 14.419L40.8233 9.55063L40.4343 7.43941L33.2204 6.39122L30.0659 0H27.9339L24.7794 6.39133L17.5655 7.43952L17.1765 9.55074L22.171 14.4191L20.95 21.5385ZM27.0362 9.49761L28.9999 5.51884L30.9636 9.49773L35.3545 10.1357L32.1772 13.2328L32.9273 17.6059L28.9999 15.5412L25.0726 17.6058L25.8226 13.2327L22.6453 10.1356L27.0362 9.49761Z" fill="black"/>
<path d="M3.94669 27.7152L5.93047 28.4998L9.75847 25.558L14.3419 27.0401L15.9611 25.6491L14.2782 20.9082L17.0744 17.0485L16.3441 15.0358L11.2529 15.1731L8.34778 11.1865L6.2557 11.5644L4.86325 16.2781L0.0336191 17.8547L0.0012207 19.9937L3.9399 22.6962L3.94669 27.7152ZM7.61633 18.9543L8.24708 16.8191L9.55819 18.6185L11.7837 18.5584L10.4776 20.3614L11.2224 22.4596L9.10416 21.7746L7.3389 23.1312L7.33584 20.9048L5.50001 19.6451L7.61633 18.9543Z" fill="black"/>
<path d="M42.0389 25.649L43.658 27.04L48.2415 25.5578L52.0695 28.4996L54.0533 27.7151L54.0602 22.6961L57.9989 19.9936L57.9665 17.8546L53.1367 16.2781L51.7443 11.5644L49.6522 11.1865L46.7473 15.1732L41.6561 15.0359L40.9258 17.0486L43.722 20.9083L42.0389 25.649ZM48.4415 18.6183L49.7527 16.819L50.3834 18.9542L52.4998 19.645L50.664 20.9047L50.6609 23.1311L48.8957 21.7745L46.7774 22.4595L47.5223 20.3613L46.2161 18.5583L48.4415 18.6183Z" fill="black"/>
</svg>
