<svg width="18" height="17" viewBox="0 0 18 17" fill="none" xmlns="http://www.w3.org/2000/svg">
<g clip-path="url(#clip0_1280_2196)">
<path d="M12.9258 8.8567L13.3431 8.43943C13.3432 8.4393 13.3433 8.43917 13.3435 8.43904C13.3436 8.4389 13.3437 8.43877 13.3439 8.43864L14.8158 6.96668C14.8159 6.96658 14.816 6.96651 14.8161 6.96644C14.8162 6.96638 14.8163 6.96628 14.8163 6.96618L16.2886 5.49395C16.2886 5.49392 16.2886 5.49389 16.2887 5.49385C16.2887 5.49382 16.2887 5.49379 16.2887 5.49375L17.0974 4.68509C17.357 4.42551 17.5 4.08033 17.5 3.7132C17.5 3.34608 17.357 3.0009 17.0974 2.74135L14.7587 0.402618C14.4991 0.143036 14.154 3.01672e-05 13.7868 3.01672e-05C13.4197 3.01672e-05 13.0745 0.143003 12.8149 0.402618L8.6433 4.57419L5.81177 1.74263C5.33776 1.26862 4.74369 0.931212 4.09374 0.76689L1.12013 0.015204C0.950135 -0.0277941 0.769908 0.0218446 0.645895 0.145925C0.521848 0.269938 0.472209 0.450065 0.515207 0.620132L1.26693 3.59374C1.43121 4.24366 1.76863 4.83776 2.24263 5.31177L5.0742 8.1433L0.902555 12.3149C0.642973 12.5745 0.5 12.9197 0.5 13.2868C0.5 13.654 0.642973 13.9991 0.902588 14.2586L3.24132 16.5974C3.50093 16.857 3.84608 17 4.21324 17C4.58037 17 4.92551 16.857 5.18509 16.5974L7.46538 14.3172C7.46575 14.3168 7.46608 14.3165 7.46645 14.3161C7.46681 14.3158 7.46714 14.3154 7.46748 14.3151L9.3567 12.4258L13.1917 16.2608C13.6837 16.7528 14.3299 16.9989 14.9762 16.9989C15.6225 16.9989 16.2688 16.7529 16.7608 16.2608C17.7448 15.2768 17.7448 13.6757 16.7608 12.6917L12.9258 8.8567ZM2.23261 3.34963L1.68555 1.18558L3.8496 1.73267C4.32543 1.85293 4.76036 2.09996 5.1074 2.447L5.50006 2.83966L3.3396 5.00012L2.94694 4.60746C2.5999 4.26039 2.3529 3.82546 2.23261 3.34963ZM4.04394 5.70443L6.2044 3.54397L7.93896 5.27853L5.7785 7.43899L4.04394 5.70443ZM4.21324 16.0039C4.11217 16.0039 4.01717 15.9645 3.94569 15.8931L1.60693 13.5543C1.53547 13.4829 1.49613 13.3879 1.49613 13.2868C1.49613 13.1857 1.53547 13.0907 1.60693 13.0192L13.5192 1.10692C13.5907 1.03547 13.6858 0.996091 13.7868 0.996091C13.8879 0.996091 13.9829 1.03547 14.0544 1.10692L16.3931 3.44568C16.4646 3.5171 16.5039 3.61213 16.5039 3.7132C16.5039 3.81427 16.4646 3.9093 16.3931 3.98079L15.9365 4.43736L14.4173 2.91805C14.2228 2.72355 13.9075 2.72355 13.7129 2.91805C13.5184 3.11252 13.5184 3.42789 13.7129 3.62239L15.2322 5.1417L14.4639 5.90995L13.6809 5.12699C13.4865 4.93245 13.1711 4.93252 12.9766 5.12699C12.7821 5.32149 12.7821 5.63683 12.9766 5.83133L13.7596 6.61429L12.9913 7.38255L11.4721 5.86324C11.2776 5.66873 10.9622 5.66873 10.7677 5.86324C10.5732 6.05771 10.5732 6.37307 10.7677 6.56757L12.287 8.08685L11.5188 8.8551L10.7358 8.07214C10.5413 7.87767 10.2259 7.87767 10.0314 8.07214C9.83692 8.26661 9.83692 8.58197 10.0314 8.77648L10.8144 9.55944L10.0594 10.3144L8.54017 8.79511C8.34567 8.6006 8.03034 8.6006 7.83583 8.79511C7.64133 8.98958 7.64133 9.30494 7.83583 9.49944L9.35511 11.0187L8.58685 11.787L7.80389 11.004C7.60942 10.8095 7.29406 10.8095 7.09955 11.004C6.90505 11.1985 6.90505 11.5138 7.09955 11.7083L7.88252 12.4913L7.11426 13.2596L5.59502 11.7403C5.40055 11.5459 5.08519 11.5459 4.89068 11.7403C4.69618 11.9348 4.69618 12.2502 4.89068 12.4447L6.40992 13.9639L5.64167 14.7322L4.85871 13.9492C4.66424 13.7547 4.34887 13.7547 4.15437 13.9492C3.95987 14.1437 3.95987 14.459 4.15437 14.6535L4.93733 15.4365L4.48076 15.8931C4.4093 15.9646 4.31428 16.0039 4.21324 16.0039ZM10.4096 11.3729C10.4103 11.3723 10.411 11.3716 10.4117 11.3709C10.4124 11.3702 10.413 11.3695 10.4137 11.3688L11.8704 9.91216C11.8706 9.91196 11.8708 9.91179 11.8709 9.91159C11.8711 9.9114 11.8713 9.91123 11.8715 9.91103L12.2215 9.56104L14.332 11.6715L12.1715 13.832L10.061 11.7215L10.4096 11.3729ZM16.0565 15.5565C15.4608 16.1521 14.4916 16.1521 13.896 15.5565L12.8758 14.5363L15.0363 12.3758L16.0565 13.396C16.6521 13.9917 16.6521 14.9608 16.0565 15.5565Z" fill="url(#paint0_linear_1280_2196)"/>
</g>
<defs>
<linearGradient id="paint0_linear_1280_2196" x1="0.5" y1="-2" x2="21.5" y2="24" gradientUnits="userSpaceOnUse">
<stop stop-color="#824CAC"/>
<stop offset="1" stop-color="#5F9AD9"/>
</linearGradient>
<clipPath id="clip0_1280_2196">
<rect width="17" height="17" fill="white" transform="translate(0.5)"/>
</clipPath>
</defs>
</svg>
