<svg width="56" height="47" viewBox="0 0 56 47" fill="none" xmlns="http://www.w3.org/2000/svg">
<path d="M42.8745 46.0315C43.4442 46.633 44.3936 46.6587 44.9951 46.089L54.7961 36.8052C55.3975 36.2355 55.4233 35.2861 54.8536 34.6846C54.2839 34.0832 53.3345 34.0574 52.733 34.6272L44.021 42.8795L35.7687 34.1674C35.199 33.566 34.2496 33.5403 33.6481 34.11C33.0467 34.6797 33.021 35.6291 33.5907 36.2305L42.8745 46.0315ZM1.47813 5.42439C8.65879 3.00955 19.2113 2.1609 27.7404 7.14015C36.1404 12.044 43.0618 22.901 42.4641 44.9594L45.463 45.0406C46.0783 22.3343 38.9312 10.1995 29.2529 4.54933C19.7036 -1.02547 8.16784 0.00954819 0.521867 2.58088L1.47813 5.42439Z" fill="#1690DF"/>
</svg>
