<svg width="17" height="17" viewBox="0 0 17 17" fill="none" xmlns="http://www.w3.org/2000/svg">
<g clip-path="url(#clip0_1280_2212)">
<path d="M8.5 0C3.81972 0 0 3.81999 0 8.5C0 13.1803 3.81999 17 8.5 17C13.1803 17 17 13.18 17 8.5C17 3.81972 13.18 0 8.5 0ZM8.5 16.0039C4.36233 16.0039 0.996094 12.6377 0.996094 8.5C0.996094 4.36233 4.36233 0.996094 8.5 0.996094C12.6377 0.996094 16.0039 4.36233 16.0039 8.5C16.0039 12.6377 12.6377 16.0039 8.5 16.0039Z" fill="url(#paint0_linear_1280_2212)"/>
<path d="M6.00926 6.00977H7.5034C8.15269 6.00977 8.70628 6.4262 8.91188 7.00586H6.00926V8.00162H8.91188C8.70628 8.58161 8.15269 8.99805 7.5034 8.99805H5.90234L9.11491 12.8055L9.87626 12.1632L8.00354 9.94367C8.97682 9.74445 9.74454 8.9755 9.94303 8.00195H10.9897V7.00586H9.94336C9.86839 6.63807 9.71234 6.29943 9.49442 6.00977H10.9897V5.01367H6.00926V6.00977Z" fill="url(#paint1_linear_1280_2212)"/>
<path d="M8.5 1.99219C4.92074 1.99219 1.99219 4.92117 1.99219 8.5C1.99219 12.0793 4.92117 15.0078 8.5 15.0078C12.0793 15.0078 15.0078 12.0788 15.0078 8.5C15.0078 4.92074 12.0788 1.99219 8.5 1.99219ZM8.5 14.0117C5.46082 14.0117 2.98828 11.5392 2.98828 8.5C2.98828 5.46082 5.46082 2.98828 8.5 2.98828C11.5392 2.98828 14.0117 5.46082 14.0117 8.5C14.0117 11.5392 11.5392 14.0117 8.5 14.0117Z" fill="url(#paint2_linear_1280_2212)"/>
</g>
<defs>
<linearGradient id="paint0_linear_1280_2212" x1="-2.52224e-07" y1="-2" x2="21" y2="24" gradientUnits="userSpaceOnUse">
<stop stop-color="#824CAC"/>
<stop offset="1" stop-color="#5F9AD9"/>
</linearGradient>
<linearGradient id="paint1_linear_1280_2212" x1="5.90234" y1="4.09698" x2="15.5293" y2="11.879" gradientUnits="userSpaceOnUse">
<stop stop-color="#824CAC"/>
<stop offset="1" stop-color="#5F9AD9"/>
</linearGradient>
<linearGradient id="paint2_linear_1280_2212" x1="1.99219" y1="0.460937" x2="18.0703" y2="20.3672" gradientUnits="userSpaceOnUse">
<stop stop-color="#824CAC"/>
<stop offset="1" stop-color="#5F9AD9"/>
</linearGradient>
<clipPath id="clip0_1280_2212">
<rect width="17" height="17" fill="white"/>
</clipPath>
</defs>
</svg>
