<svg width="57" height="57" viewBox="0 0 57 57" fill="none" xmlns="http://www.w3.org/2000/svg">
<g clip-path="url(#clip0_1147_14857)">
<path d="M35.291 10.0195C28.8461 10.0195 23.6016 15.2641 23.6016 21.709C23.6016 28.1539 28.8461 33.3984 35.291 33.3984C41.7359 33.3984 46.9805 28.1539 46.9805 21.709C46.9805 15.2641 41.7359 10.0195 35.291 10.0195ZM39.8115 21.2197L34.8017 26.2295C34.4755 26.5557 34.0483 26.7188 33.6211 26.7188C33.1939 26.7188 32.7665 26.5557 32.4405 26.2295L29.9356 23.7246C29.2833 23.0723 29.2833 22.0155 29.9356 21.3632C30.5878 20.7109 31.6447 20.7109 32.297 21.3632L33.6211 22.6874L37.4502 18.8583C38.1025 18.206 39.1593 18.206 39.8116 18.8583C40.4639 19.5106 40.4639 20.5674 39.8115 21.2197Z" fill="#62B5EC"/>
<path d="M35.291 0C23.321 0 13.582 9.73899 13.582 21.709C13.582 33.679 23.321 43.418 35.291 43.418C47.261 43.418 57 33.679 57 21.709C57 9.73899 47.261 0 35.291 0ZM35.291 36.7383C27.0034 36.7383 20.2617 29.9966 20.2617 21.709C20.2617 13.4214 27.0034 6.67969 35.291 6.67969C43.5786 6.67969 50.3203 13.4214 50.3203 21.709C50.3203 29.9966 43.5786 36.7383 35.291 36.7383Z" fill="#62B5EC"/>
<path d="M1.46527 55.5355C3.41708 57.4871 6.59572 57.4892 8.54942 55.5355L21.4918 42.5936C18.6815 40.7306 16.2694 38.3185 14.4064 35.5082L1.46527 48.4513C-0.488424 50.405 -0.488424 53.5818 1.46527 55.5355Z" fill="#62B5EC"/>
</g>
<defs>
<clipPath id="clip0_1147_14857">
<rect width="57" height="57" fill="white"/>
</clipPath>
</defs>
</svg>
