<svg width="17" height="17" viewBox="0 0 17 17" fill="none" xmlns="http://www.w3.org/2000/svg">
<g clip-path="url(#clip0_1280_2231)">
<path d="M16.2836 12.7482L12.6224 9.08511L11.9162 9.79133L10.9776 8.85275L11.966 7.86418C13.3263 8.22828 14.8021 7.85465 15.8271 6.82927C16.9412 5.71519 17.274 4.08691 16.7663 2.66043L16.5012 1.91574L13.6088 4.80815L12.6665 4.33716L12.1956 3.39499L15.088 0.502541L14.3433 0.237503C12.9196 -0.269193 11.2907 0.0604325 10.1745 1.17661C9.15036 2.2005 8.775 3.67561 9.1396 5.03788L8.15123 6.02642L5.69343 3.56863L5.34002 2.50874L3.49038 0.659127L0.664019 3.48545L2.51363 5.3351L3.57349 5.68847L6.03132 8.14627L5.04224 9.13514C1.95994 8.27607 -0.855167 11.3743 0.241928 14.3389L0.507 15.0836L2.75845 12.8321L3.93605 13.0677L4.17168 14.2453L1.9202 16.4968L2.66485 16.7619C4.08548 17.2675 5.71558 16.9412 6.83366 15.8227C7.85548 14.8009 8.23393 13.3266 7.8686 11.9616L8.85768 10.9727L9.79622 11.9112L9.08944 12.618L12.731 16.2617C13.705 17.2356 15.2899 17.2357 16.2639 16.2616C17.2376 15.2875 17.2464 13.7114 16.2836 12.7482ZM10.2826 5.30792L10.1767 5.0104C9.79029 3.92473 10.0667 2.6973 10.8811 1.88323C11.4894 1.27491 12.3282 0.966534 13.1664 1.01094L10.9797 3.1976L11.9217 5.08198L13.8061 6.02396L15.9927 3.83726C16.0369 4.67538 15.7287 5.51433 15.1204 6.12272C14.3064 6.93692 13.0789 7.21335 11.9933 6.82694L11.6957 6.72101L10.2709 8.1461L8.85774 6.73291L10.2826 5.30792ZM6.72551 11.6914L6.83143 11.989C7.21781 13.0744 6.94132 14.3019 6.12705 15.1162C5.51883 15.7246 4.67967 16.033 3.84172 15.9885L5.25645 14.5738L4.78526 12.2186L2.43009 11.7474L1.01539 13.1621C0.97116 12.3239 1.2793 11.4849 1.88769 10.8767C2.70196 10.0625 3.92949 9.78603 5.01483 10.1724L5.31234 10.2783L6.73796 8.85292L8.15116 10.2661L6.72551 11.6914ZM4.11336 4.81511L3.05347 4.46174L2.07718 3.48545L3.49038 2.07222L4.46666 3.04854L4.82007 4.10843L11.2096 10.4979L10.5028 11.2046L4.11336 4.81511ZM15.5573 15.5551C14.9729 16.1395 14.022 16.1394 13.4377 15.5552L10.5024 12.6182L11.2094 11.9113L14.1441 14.8482L14.8509 14.1419L11.916 11.2047L12.6222 10.4985L15.5769 13.4546C16.1503 14.0283 16.1415 14.9706 15.5573 15.5551Z" fill="url(#paint0_linear_1280_2231)"/>
</g>
<defs>
<linearGradient id="paint0_linear_1280_2231" x1="-2.52224e-07" y1="-1.99268" x2="20.9815" y2="24.0033" gradientUnits="userSpaceOnUse">
<stop stop-color="#824CAC"/>
<stop offset="1" stop-color="#5F9AD9"/>
</linearGradient>
<clipPath id="clip0_1280_2231">
<rect width="17" height="17" fill="white"/>
</clipPath>
</defs>
</svg>
