<svg width="17" height="17" viewBox="0 0 17 17" fill="none" xmlns="http://www.w3.org/2000/svg">
<path d="M9.99414 4.48242C9.99414 3.65855 9.32387 2.98828 8.5 2.98828C7.67613 2.98828 7.00586 3.65855 7.00586 4.48242C7.00586 5.30629 7.67613 5.97656 8.5 5.97656C9.32387 5.97656 9.99414 5.30629 9.99414 4.48242ZM8.5 4.98047C8.22538 4.98047 8.00195 4.75704 8.00195 4.48242C8.00195 4.2078 8.22538 3.98438 8.5 3.98438C8.77462 3.98438 8.99805 4.2078 8.99805 4.48242C8.99805 4.75704 8.77462 4.98047 8.5 4.98047Z" fill="url(#paint0_linear_1280_2177)"/>
<path d="M10.9902 8.4668C10.9902 7.09368 9.87312 5.97656 8.5 5.97656C7.12688 5.97656 6.00977 7.09368 6.00977 8.4668V8.96484H10.9902V8.4668ZM7.09119 7.96875C7.29675 7.38899 7.85068 6.97266 8.5 6.97266C9.14932 6.97266 9.70325 7.38899 9.90881 7.96875H7.09119Z" fill="url(#paint1_linear_1280_2177)"/>
<path d="M10.9386 12.4032C11.0896 12.2027 11.243 11.9932 11.3968 11.776C13.1099 9.35478 13.9785 7.23599 13.9785 5.47852C13.9785 2.45766 11.5209 0 8.5 0C5.47915 0 3.02148 2.45766 3.02148 5.47852C3.02148 7.23599 3.89011 9.35478 5.60319 11.776C5.75692 11.9932 5.91036 12.2027 6.06143 12.4032C4.78371 12.8465 4.01758 13.6192 4.01758 14.5098C4.01758 15.2404 4.5298 15.8989 5.45989 16.3639C6.28024 16.7741 7.3599 17 8.5 17C9.6401 17 10.7198 16.7741 11.5401 16.3639C12.4702 15.8989 12.9824 15.2404 12.9824 14.5098C12.9824 13.6192 12.2163 12.8465 10.9386 12.4032ZM4.01758 5.47852C4.01758 3.00691 6.02839 0.996094 8.5 0.996094C10.9716 0.996094 12.9824 3.00691 12.9824 5.47852C12.9824 8.60784 9.61609 12.5581 8.49987 13.7818C7.38341 12.5588 4.01758 8.61136 4.01758 5.47852ZM8.5 16.0039C6.50463 16.0039 5.01367 15.2151 5.01367 14.5098C5.01367 14.0241 5.70177 13.5213 6.71892 13.2423C7.5044 14.2071 8.10946 14.8231 8.14549 14.8596L8.5 15.2188L8.85451 14.8596C8.89054 14.8231 9.4956 14.207 10.2811 13.2423C11.2982 13.5213 11.9863 14.0241 11.9863 14.5098C11.9863 15.2151 10.4954 16.0039 8.5 16.0039Z" fill="url(#paint2_linear_1280_2177)"/>
<defs>
<linearGradient id="paint0_linear_1280_2177" x1="7.00586" y1="2.63672" x2="10.6973" y2="7.20703" gradientUnits="userSpaceOnUse">
<stop stop-color="#824CAC"/>
<stop offset="1" stop-color="#5F9AD9"/>
</linearGradient>
<linearGradient id="paint1_linear_1280_2177" x1="6.00977" y1="5.625" x2="8.97347" y2="11.7406" gradientUnits="userSpaceOnUse">
<stop stop-color="#824CAC"/>
<stop offset="1" stop-color="#5F9AD9"/>
</linearGradient>
<linearGradient id="paint2_linear_1280_2177" x1="3.02148" y1="-2" x2="23.9667" y2="14.7141" gradientUnits="userSpaceOnUse">
<stop stop-color="#824CAC"/>
<stop offset="1" stop-color="#5F9AD9"/>
</linearGradient>
</defs>
</svg>
