<svg width="17" height="17" viewBox="0 0 17 17" fill="none" xmlns="http://www.w3.org/2000/svg">
<g clip-path="url(#clip0_1280_2248)">
<path d="M8.99798 6.87292V4.99365H8.00188V6.87292C7.37255 7.08216 6.91724 7.67613 6.91724 8.37483C6.91724 9.2475 7.62722 9.95752 8.49993 9.95752C9.37264 9.95752 10.0826 9.2475 10.0826 8.37483C10.0826 7.67613 9.62731 7.08216 8.99798 6.87292ZM8.49993 8.96143C8.1765 8.96143 7.91333 8.69826 7.91333 8.37483C7.91333 8.05139 8.17647 7.78826 8.49993 7.78826C8.82339 7.78826 9.08653 8.05139 9.08653 8.37483C9.08653 8.69826 8.82336 8.96143 8.49993 8.96143Z" fill="url(#paint0_linear_1280_2248)"/>
<path d="M3.9638 8.15392H3.11576C3.17304 7.52997 3.33709 6.9365 3.58891 6.3916L4.28298 6.79233L4.78103 5.92971L4.08835 5.52978C4.44249 5.03084 4.87898 4.59438 5.37789 4.24024L5.77782 4.93292L6.64044 4.43487L6.23971 3.74076C6.78461 3.48895 7.37811 3.32516 8.00207 3.26792V4.07004H8.99816V3.26788C9.62211 3.32513 10.2156 3.48892 10.7605 3.74073L10.3598 4.43484L11.2224 4.93289L11.6223 4.2402C12.1212 4.59435 12.5577 5.0308 12.9119 5.52975L12.2192 5.92968L12.7172 6.7923L13.4113 6.39157C13.6631 6.9365 13.8272 7.52994 13.8845 8.15389H13.0364V9.14998H14.9033V8.65194C14.9033 5.12122 12.0309 2.24878 8.50015 2.24878C4.96943 2.24878 2.09692 5.12125 2.09692 8.65197V9.15002H3.96384L3.9638 8.15392Z" fill="url(#paint1_linear_1280_2248)"/>
<path d="M17 14.1411V0H0V14.1411H6.35149V14.7754C6.35149 15.4528 5.80039 16.0039 5.12298 16.0039H3.58594V17H13.4141V16.0039H11.877C11.1996 16.0039 10.6485 15.4528 10.6485 14.7754V14.1411H17ZM16.0039 0.996094V10.8208H0.996094V0.996094H16.0039ZM0.996094 11.8169H16.0039V13.1451H0.996094V11.8169ZM10.0236 16.0039H6.97638C7.21066 15.6516 7.34755 15.2293 7.34755 14.7754V14.1411H9.65241V14.7754C9.65241 15.2293 9.78934 15.6516 10.0236 16.0039Z" fill="url(#paint2_linear_1280_2248)"/>
</g>
<defs>
<linearGradient id="paint0_linear_1280_2248" x1="6.91724" y1="4.40967" x2="13.0183" y2="9.22653" gradientUnits="userSpaceOnUse">
<stop stop-color="#824CAC"/>
<stop offset="1" stop-color="#5F9AD9"/>
</linearGradient>
<linearGradient id="paint1_linear_1280_2248" x1="2.09692" y1="1.43687" x2="8.47895" y2="16.0995" gradientUnits="userSpaceOnUse">
<stop stop-color="#824CAC"/>
<stop offset="1" stop-color="#5F9AD9"/>
</linearGradient>
<linearGradient id="paint2_linear_1280_2248" x1="-2.52224e-07" y1="-2" x2="21" y2="24" gradientUnits="userSpaceOnUse">
<stop stop-color="#824CAC"/>
<stop offset="1" stop-color="#5F9AD9"/>
</linearGradient>
<clipPath id="clip0_1280_2248">
<rect width="17" height="17" fill="white"/>
</clipPath>
</defs>
</svg>
