<svg width="20" height="18" viewBox="0 0 20 18" fill="none" xmlns="http://www.w3.org/2000/svg">
<path d="M18.7725 15.4072C19.052 15.4076 19.3209 15.5146 19.5241 15.7065C19.7274 15.8984 19.8497 16.1606 19.8661 16.4397C19.8824 16.7187 19.7917 16.9935 19.6123 17.2078C19.4328 17.4222 19.1784 17.5599 18.9008 17.5929L18.7725 17.6006H1.22559C0.946066 17.6003 0.677211 17.4933 0.473957 17.3014C0.270702 17.1095 0.148389 16.8472 0.132008 16.5682C0.115626 16.2892 0.206414 16.0144 0.38582 15.8C0.565226 15.5857 0.81971 15.4479 1.09728 15.4149L1.22559 15.4072H18.7725ZM18.7725 7.73048C19.0633 7.73048 19.3423 7.84602 19.548 8.05169C19.7536 8.25736 19.8692 8.5363 19.8692 8.82716C19.8692 9.11802 19.7536 9.39696 19.548 9.60263C19.3423 9.8083 19.0633 9.92384 18.7725 9.92384H1.22559C0.934729 9.92384 0.655784 9.8083 0.450117 9.60263C0.244449 9.39696 0.128906 9.11802 0.128906 8.82716C0.128906 8.5363 0.244449 8.25736 0.450117 8.05169C0.655784 7.84602 0.934729 7.73048 1.22559 7.73048H18.7725ZM18.7725 0.0537109C19.0633 0.0537109 19.3423 0.169254 19.548 0.374922C19.7536 0.580589 19.8692 0.859534 19.8692 1.15039C19.8692 1.44125 19.7536 1.72019 19.548 1.92586C19.3423 2.13153 19.0633 2.24707 18.7725 2.24707H1.22559C0.934729 2.24707 0.655784 2.13153 0.450117 1.92586C0.244449 1.72019 0.128906 1.44125 0.128906 1.15039C0.128906 0.859534 0.244449 0.580589 0.450117 0.374922C0.655784 0.169254 0.934729 0.0537109 1.22559 0.0537109H18.7725Z" fill="black"/>
</svg>
