<svg width="68" height="60" viewBox="0 0 68 60" fill="none" xmlns="http://www.w3.org/2000/svg">
<path d="M61.0533 12.6257V15.3656L58.5924 15.7265C58.2643 15.7921 58.0018 16.0382 57.9197 16.35C57.6572 17.5476 57.1814 18.6796 56.5088 19.7625C56.3283 20.0414 56.3447 20.4023 56.558 20.6648L58.0346 22.65L56.115 24.5859L54.1299 23.1093C53.851 22.9125 53.49 22.9125 53.2111 23.0765C52.1611 23.7328 51.0291 24.2085 49.815 24.471C49.4869 24.5367 49.2408 24.7992 49.1916 25.1437L48.8307 27.5882H46.0744L45.7299 25.1437C45.6643 24.8156 45.4182 24.5531 45.1064 24.471C43.9252 24.2085 42.7768 23.7328 41.6939 23.0601C41.415 22.8796 41.0541 22.896 40.7916 23.1093L38.8064 24.5859L36.8705 22.65L38.3471 20.6648C38.5275 20.3859 38.5439 20.025 38.3799 19.746C37.7236 18.696 37.2479 17.564 36.9854 16.35C36.9197 16.0218 36.6572 15.7757 36.3127 15.7265L33.8682 15.3656V12.6257L36.3291 12.2648C36.6572 12.1992 36.9197 11.9531 37.0018 11.6414C37.2643 10.4601 37.74 9.31167 38.4127 8.22886C38.5932 7.94995 38.5768 7.58902 38.3635 7.32652L36.8869 5.34136L38.8064 3.42183L40.7916 4.89839C41.0705 5.09526 41.4314 5.09526 41.7104 4.9312C42.7439 4.27495 43.8924 3.79917 45.1064 3.53667C45.4346 3.47105 45.6807 3.20855 45.7299 2.86401L46.0908 0.403076H48.8307L49.1916 2.86401C49.2408 3.19214 49.5033 3.45464 49.815 3.53667C51.0127 3.79917 52.1447 4.27495 53.2275 4.94761C53.5064 5.12808 53.8674 5.11167 54.1299 4.89839L56.115 3.40542L58.051 5.34136L56.5744 7.32652C56.3939 7.60542 56.3775 7.96636 56.5416 8.24527C57.1979 9.27886 57.6736 10.4273 57.9361 11.6414C58.0018 11.9695 58.2643 12.2156 58.6088 12.2648L61.0533 12.6257ZM55.59 14.0039C55.59 9.52495 51.9479 5.88276 47.4689 5.88276C42.99 5.88276 39.3479 9.52495 39.3479 14.0039C39.3479 18.4828 42.99 22.125 47.4689 22.125C51.9479 22.125 55.59 18.4828 55.59 14.0039Z" fill="#62B5EC"/>
<path d="M47.4535 7.47424C51.0465 7.47424 53.9832 10.411 53.9832 14.0039C53.9832 17.5969 51.0629 20.5336 47.4535 20.5336C43.8605 20.5336 40.9238 17.5969 40.9238 14.0039C40.9238 10.411 43.8605 7.47424 47.4535 7.47424ZM50.8332 17.3836C51.1449 17.0719 51.1449 16.5797 50.8332 16.2516L48.2574 13.6758V10.7063C48.2574 10.2797 47.9129 9.90237 47.4535 9.90237C47.027 9.90237 46.6496 10.2469 46.6496 10.7063V14.0203C46.6496 14.2336 46.7316 14.4469 46.8793 14.5782L49.6848 17.3836C49.8488 17.5477 50.0457 17.6133 50.259 17.6133C50.4723 17.6133 50.6855 17.5313 50.8332 17.3836Z" fill="#62B5EC"/>
<path d="M19.1028 50.393L20.1856 52.7063C20.1856 52.7227 20.1856 52.7391 20.1692 52.7555L15.559 54.9047L7.04419 36.7594L11.6379 34.6102C11.6543 34.5938 11.6708 34.6102 11.6872 34.6266L12.7372 36.8742V36.8907L12.7864 36.9891L12.8028 37.0055L19.1028 50.393Z" fill="#62B5EC"/>
<path d="M15.0173 57.5461C15.0337 57.5625 15.0173 57.5625 15.0009 57.5789L10.7189 59.5969C10.7024 59.5969 10.6696 59.5969 10.6696 59.5804L0.3337 37.514C0.317294 37.4976 0.3337 37.4976 0.350107 37.4812L4.64854 35.4633C4.66495 35.4633 4.66495 35.4633 4.68136 35.4797L5.20636 36.5953C5.22276 36.6281 5.22276 36.6773 5.23917 36.7101C5.25557 36.7594 5.28839 36.8086 5.3212 36.8414L14.4431 56.2992L15.0173 57.5461Z" fill="#62B5EC"/>
<path d="M67.3529 35.3649C67.7467 36.1852 67.7795 37.1203 67.435 37.9734C67.1232 38.8266 66.467 39.5156 65.6139 39.8766L46.8123 47.9977C43.974 49.2281 40.7584 49.4086 37.7889 48.4734L33.6381 47.1609C30.4389 46.1766 26.9936 46.3242 23.9092 47.5383L20.2178 48.9984L14.4756 36.8086C25.5006 27.8344 39.4623 31.7555 45.024 33.8719C46.1889 34.3148 46.8779 35.4797 46.7303 36.7102C46.6975 36.7922 46.6811 36.8906 46.6811 36.9891C46.5334 37.6453 46.1397 38.2195 45.5818 38.5969C44.9584 39.0234 44.2201 39.1711 43.4982 39.007L35.0982 37.1695C34.6553 37.0711 34.2287 37.35 34.1467 37.7766C34.0482 38.2195 34.3272 38.6461 34.7537 38.7281L43.1537 40.5492C43.4818 40.6313 43.7772 40.6477 44.0889 40.6477C44.942 40.6477 45.7787 40.4016 46.4842 39.9094C47.3045 39.3352 47.8951 38.5313 48.174 37.6125L63.399 33.4617C64.9904 33.0516 66.6639 33.8391 67.3529 35.3649Z" fill="#62B5EC"/>
</svg>
