<svg width="20" height="20" viewBox="0 0 20 20" fill="none" xmlns="http://www.w3.org/2000/svg">
<g clip-path="url(#clip0_1147_17087)">
<path d="M15.0821 11.5062C15.0821 7.87109 12.1431 4.92432 8.51761 4.92432C4.89212 4.92432 1.95312 7.87109 1.95312 11.5062C1.95312 15.1413 4.89212 18.0881 8.51761 18.0881C12.1431 18.0881 15.0821 15.1413 15.0821 11.5062Z" fill="#89C8FD"/>
<path d="M8.51758 4.92432C8.18066 4.92432 7.84955 4.9498 7.52637 4.99893C10.6814 5.47806 13.0995 8.20892 13.0995 11.5062C13.0995 14.8035 10.6814 17.5343 7.52637 18.0135C7.84955 18.0626 8.18066 18.0881 8.51758 18.0881C12.1431 18.0881 15.0821 15.1413 15.0821 11.5062C15.0821 7.87109 12.1431 4.92432 8.51758 4.92432Z" fill="#60B6FF"/>
<path d="M7.66426 7.48221C6.65306 8.11591 5.89455 9.1297 6.4634 10.2704C7.03225 11.411 8.29628 10.9675 9.46556 10.8091C10.6348 10.6507 9.74999 14.2628 10.4452 15.1499C11.1404 16.037 13.0996 14.2628 12.9101 13.122C12.6293 11.4332 12.5309 10.8407 14.8061 9.63675L14.8122 9.63446C14.0453 7.03757 11.7239 5.11069 8.92861 4.9375L8.9283 4.94742C8.9283 4.94742 8.67546 6.84851 7.66426 7.48221Z" fill="#BAEB6C"/>
<path d="M12.6309 6.37646C12.6313 6.37677 12.6318 6.37723 12.6322 6.37753C12.6318 6.37723 12.6313 6.37692 12.6309 6.37646Z" fill="#BAEB6C"/>
<path d="M13.4336 7.14453C13.4336 7.14468 13.4337 7.14484 13.4339 7.14484C13.4337 7.14468 13.4337 7.14468 13.4336 7.14453Z" fill="#BAEB6C"/>
<path d="M4.15665 14.4846C3.853 14.0215 4.69391 12.9322 4.88342 12.1084C5.07309 11.2846 3.93539 11.3479 3.5878 11.0627C3.2402 10.7775 2.76611 9.54187 2.41852 9.25668L2.36298 9.21289C2.09808 9.927 1.95312 10.6997 1.95312 11.5063C1.95312 13.6819 3.00598 15.6106 4.6286 16.8089L4.63058 16.6709C4.63058 16.6709 4.88342 15.5937 4.15665 14.4846Z" fill="#BAEB6C"/>
<path d="M12.9098 13.1222C12.9084 13.114 12.9071 13.1059 12.9057 13.0977C12.7801 13.605 12.5958 14.0892 12.3604 14.5424C12.7337 14.1017 12.9832 13.5644 12.9098 13.1222Z" fill="#BAEB6C"/>
<path d="M8.92822 4.9375L8.92792 4.94742C8.92792 4.94742 8.90686 5.10611 8.85254 5.34674C11.1545 6.21802 12.8398 8.34906 13.0717 10.9015C13.3618 10.5048 13.8924 10.12 14.8058 9.63675L14.8119 9.63446C14.045 7.03757 11.7235 5.11069 8.92822 4.9375Z" fill="#96D629"/>
<path d="M8.50878 20.0001C8.04384 20.0001 7.57555 19.962 7.10756 19.8846C4.87047 19.5152 2.91109 18.2968 1.59044 16.4538C0.269793 14.6109 -0.254041 12.3639 0.115527 10.1269C0.14223 9.96488 0.295733 9.85532 0.457324 9.88203C0.619372 9.90873 0.729083 10.0618 0.702227 10.2238C0.358752 12.3041 0.845813 14.3936 2.07399 16.1075C3.30217 17.8213 5.12407 18.9543 7.20461 19.2979C11.4995 20.0075 15.5699 17.0904 16.2793 12.7962C16.6228 10.7159 16.1357 8.62638 14.9075 6.91252C13.6795 5.19865 11.8575 4.06568 9.77709 3.72206C9.61504 3.69535 9.50533 3.54231 9.53203 3.38026C9.55889 3.21821 9.71224 3.10865 9.87383 3.13535C12.1111 3.50477 14.0705 4.72318 15.3909 6.56614C16.7116 8.4091 17.2354 10.6561 16.866 12.893C16.4966 15.13 15.278 17.0892 13.4349 18.4097C11.9773 19.454 10.267 20.0001 8.50878 20.0001Z" fill="#09A66D"/>
<path d="M6.70331 7.18307C3.52887 6.64443 1.55957 2.64755 1.55957 2.64755C1.55957 2.64755 4.73721 -0.476081 7.91165 0.0624015C11.0861 0.600884 13.0554 4.59777 13.0554 4.59777C13.0554 4.59777 9.87775 7.72155 6.70331 7.18307Z" fill="#49CB5C"/>
<path d="M7.9118 0.0623134C7.30557 -0.0405308 6.69949 -0.0095555 6.11523 0.107479C9.15707 0.790463 11.0334 4.59768 11.0334 4.59768C11.0334 4.59768 8.95337 6.64221 6.47778 7.13781C6.5524 7.1546 6.62747 7.17001 6.70346 7.18298C9.8779 7.72146 13.0555 4.59768 13.0555 4.59768C13.0555 4.59768 11.0862 0.600796 7.9118 0.0623134Z" fill="#07B128"/>
<path d="M12.8759 4.26581L9.77154 3.74213L6.87176 0.00830078C6.64044 0.0218811 6.41125 0.0514831 6.18512 0.0939026L8.90485 3.59579L6.56399 3.2009L4.56662 0.616669C4.37924 0.701202 4.19705 0.790924 4.02142 0.884003L5.69943 3.05502L1.82874 2.40195C1.65494 2.55377 1.55957 2.64746 1.55957 2.64746C1.55957 2.64746 1.62335 2.7767 1.74573 2.99109L5.59537 3.6405L3.46036 5.29135C3.59784 5.43295 3.74203 5.57288 3.89279 5.70868L6.3934 3.77524L8.87158 4.19333L5.50122 6.8009C5.71042 6.89856 5.92664 6.98309 6.14957 7.05115L9.66962 4.32806L12.776 4.85205C12.9561 4.69504 13.0554 4.59769 13.0554 4.59769C13.0554 4.59769 12.9939 4.47317 12.8759 4.26581Z" fill="#09A66D"/>
<path d="M15.2141 3.30334C16.0657 1.28827 19.0163 0.609863 19.0163 0.609863C19.0163 0.609863 20.5862 3.19852 19.7347 5.21359C18.8832 7.22867 15.9325 7.90707 15.9325 7.90707C15.9325 7.90707 14.3625 5.31842 15.2141 3.30334Z" fill="#49CB5C"/>
<path d="M19.0172 0.609863C19.0172 0.609863 18.3463 0.764282 17.5519 1.14423C17.9594 2.00757 18.6055 3.75973 17.991 5.21359C17.5456 6.26767 16.5257 6.95599 15.6543 7.37271C15.8116 7.70596 15.9335 7.90707 15.9335 7.90707C15.9335 7.90707 18.8841 7.22867 19.7357 5.21359C20.5872 3.19852 19.0172 0.609863 19.0172 0.609863Z" fill="#07B128"/>
<path d="M19.9767 3.5516L17.7077 4.50345L19.1974 0.941895C19.0908 0.731323 19.0171 0.609863 19.0171 0.609863C19.0171 0.609863 18.8767 0.642212 18.6483 0.713623L17.1086 4.39435L16.1539 2.04526C15.9922 2.18793 15.8396 2.34296 15.7012 2.51096L16.783 5.17285L15.7668 7.60236C15.866 7.79599 15.9333 7.90707 15.9333 7.90707C15.9333 7.90707 16.0858 7.87198 16.3312 7.79416L17.3806 5.28561L19.9758 4.19705C19.993 3.98145 19.9921 3.76523 19.9767 3.5516Z" fill="#09A66D"/>
</g>
<defs>
<clipPath id="clip0_1147_17087">
<rect width="20" height="20" fill="white"/>
</clipPath>
</defs>
</svg>
