<svg width="58" height="58" viewBox="0 0 58 58" fill="none" xmlns="http://www.w3.org/2000/svg">
<g clip-path="url(#clip0_1280_1869)">
<path d="M53.3617 29.0002C53.3617 27.7692 53.2682 26.5347 53.0834 25.3177L58.0001 21.4891L50.0048 7.64107L44.2292 9.98548C42.2933 8.43091 40.1554 7.1946 37.8519 6.29734L36.9953 0.129883H21.0048L20.1482 6.29734C17.8446 7.19471 15.7068 8.43091 13.7709 9.98548L7.99516 7.64107L0 21.4891L4.91672 25.3177C4.7319 26.5347 4.63847 27.7692 4.63847 29.0002C4.63847 30.2313 4.7319 31.4658 4.91672 32.6828L0 36.5114L7.99516 50.3594L13.7708 48.015C15.7067 49.5696 17.8446 50.8059 20.1481 51.7032L21.0047 57.8706H36.9952L37.8518 51.7032C40.1554 50.8058 42.2932 49.5696 44.2291 48.015L50.0047 50.3594L57.9999 36.5114L53.0832 32.6828C53.2681 31.4658 53.3617 30.2313 53.3617 29.0002ZM53.5625 37.3777L48.5363 46.0833L43.5873 44.0746L42.7967 44.767C40.7204 46.5855 38.3512 47.9556 35.7547 48.8392L34.7598 49.1778L34.0262 54.4607H23.9738L23.2402 49.1778L22.2453 48.8392C19.6488 47.9556 17.2796 46.5855 15.2033 44.767L14.4127 44.0746L9.46369 46.0833L4.43751 37.3777L8.64724 34.0996L8.44458 33.0698C8.18168 31.7342 8.04835 30.3649 8.04835 29.0001C8.04835 27.6354 8.18168 26.2661 8.44458 24.9304L8.64724 23.9007L4.43751 20.6226L9.46369 11.9169L14.4127 13.9257L15.2033 13.2333C17.2796 11.4148 19.6488 10.0447 22.2453 9.16108L23.2402 8.82248L23.9738 3.53954H34.0262L34.7598 8.82248L35.7547 9.16108C38.3512 10.0447 40.7204 11.4148 42.7967 13.2333L43.5873 13.9257L48.5363 11.9169L53.5625 20.6226L49.3528 23.9007L49.5554 24.9304C49.8183 26.2661 49.9516 27.6354 49.9516 29.0001C49.9516 30.3649 49.8183 31.7342 49.5554 33.0698L49.3528 34.0996L53.5625 37.3777Z" fill="black"/>
<path d="M29.0003 11.4014C19.2964 11.4014 11.4019 19.2959 11.4019 28.9998C11.4019 38.7036 19.2964 46.5982 29.0003 46.5982C38.7041 46.5982 46.5987 38.7036 46.5987 28.9998C46.5987 19.2959 38.7041 11.4014 29.0003 11.4014ZM37.7507 17.8381L35.5103 20.0785L37.9214 22.4896L40.1619 20.2492C41.7256 22.2396 42.7687 24.6572 43.0861 27.2947H39.9119V30.7046H43.0861C42.7687 33.3423 41.7257 35.7598 40.1619 37.7501L37.9214 35.5097L35.5103 37.9208L37.7507 40.1613C35.7604 41.725 33.3428 42.7681 30.7052 43.0855V39.9113H27.2953V43.0855C24.6577 42.7681 22.2402 41.7251 20.2498 40.1613L22.4902 37.9208L20.0791 35.5097L17.8387 37.7501C16.2749 35.7598 15.2318 33.3422 14.9145 30.7046H18.0886V27.2947H14.9145C15.2318 24.6571 16.2748 22.2396 17.8387 20.2492L20.0791 22.4896L22.4902 20.0785L20.2498 17.8381C22.6622 15.9428 25.7016 14.8111 29.0003 14.8111C32.299 14.8111 35.3383 15.9428 37.7507 17.8381Z" fill="black"/>
<path d="M29.0001 34.1152C31.8204 34.1152 34.1149 31.8207 34.1149 29.0004C34.1149 26.7777 32.6895 24.8826 30.705 24.1788V17.9751H27.2951V24.1788C25.3107 24.8826 23.8853 26.7777 23.8853 29.0004C23.8853 31.8207 26.1797 34.1152 29.0001 34.1152ZM29.0001 27.2955C29.9402 27.2955 30.705 28.0603 30.705 29.0004C30.705 29.9405 29.9402 30.7053 29.0001 30.7053C28.06 30.7053 27.2951 29.9405 27.2951 29.0004C27.2951 28.0603 28.0599 27.2955 29.0001 27.2955Z" fill="black"/>
</g>
<defs>
<clipPath id="clip0_1280_1869">
<rect width="58" height="58" fill="white"/>
</clipPath>
</defs>
</svg>
