<svg width="58" height="58" viewBox="0 0 58 58" fill="none" xmlns="http://www.w3.org/2000/svg">
<path d="M47.7481 36.8217C50.5399 32.9927 52.19 28.2808 52.19 23.19C52.19 10.403 41.787 0 28.9999 0C16.2129 0 5.81005 10.403 5.81005 23.19C5.81005 28.2808 7.46026 32.9927 10.2519 36.8217L3.52527 49.9768L13.137 50.5337L19.216 58L25.3085 46.0851C26.511 46.2784 27.7437 46.3801 28.9999 46.3801C30.2562 46.3801 31.4889 46.2784 32.6914 46.0851L38.7839 58L44.8629 50.5337L54.4746 49.9768L47.7481 36.8217ZM39.4376 51.8179L36.0897 45.2704C39.6227 44.1333 42.7891 42.1712 45.3594 39.6104L49.0803 46.8873L43.1734 47.2296L39.4376 51.8179ZM14.8267 47.2296L8.9197 46.8873L12.6406 39.6104C15.2108 42.1712 18.3772 44.1333 21.9104 45.2704L18.5624 51.8179L14.8267 47.2296ZM9.20636 23.19C9.20636 12.2758 18.0858 3.39643 28.9999 3.39643C39.9141 3.39643 48.7935 12.2758 48.7935 23.19C48.7935 34.1042 39.9141 42.9836 28.9999 42.9836C18.0858 42.9836 9.20636 34.1043 9.20636 23.19Z" fill="black"/>
<path d="M28.9999 38.1721C37.2611 38.1721 43.9819 31.4511 43.9819 23.19C43.9819 14.9289 37.2611 8.20801 28.9999 8.20801C20.7388 8.20801 14.0179 14.929 14.0179 23.19C14.0179 31.4511 20.7389 38.1721 28.9999 38.1721ZM28.9999 11.6044C35.3883 11.6044 40.5855 16.8016 40.5855 23.19C40.5855 29.5783 35.3883 34.7757 28.9999 34.7757C22.6116 34.7757 17.4144 29.5783 17.4144 23.19C17.4144 16.8016 22.6117 11.6044 28.9999 11.6044Z" fill="black"/>
<path d="M35.371 20.5798L32.9694 18.1782L28.1322 23.0154L25.7101 20.5934L23.3085 22.995L28.1322 27.8188L35.371 20.5798Z" fill="black"/>
</svg>
