<svg width="69" height="69" viewBox="0 0 69 69" fill="none" xmlns="http://www.w3.org/2000/svg">
<g clip-path="url(#clip0_1147_14915)">
<path d="M43.4334 54.1275C42.4306 54.1275 41.5604 53.3821 41.4304 52.3614C41.2898 51.2538 42.0731 50.242 43.1802 50.1009C49.5679 49.287 55.288 47.5562 59.2868 45.2262C62.9439 43.0957 64.9575 40.591 64.9575 38.1736C64.9575 35.5094 62.6012 33.3295 60.6239 31.9692C59.7042 31.3364 59.4716 30.0782 60.1043 29.158C60.7371 28.2384 61.9958 28.0057 62.9154 28.6385C66.8963 31.3769 69.0004 34.6739 69.0004 38.1742C69.0004 42.1466 66.3456 45.7931 61.3225 48.7196C56.801 51.3538 50.7044 53.2184 43.6914 54.1117C43.6045 54.1223 43.5182 54.1275 43.4334 54.1275Z" fill="#1690DF"/>
<path d="M34.0072 51.2321L28.6166 45.8415C27.8269 45.0518 26.5472 45.0518 25.7576 45.8415C24.9684 46.6306 24.9684 47.9108 25.7576 48.7L27.3326 50.275C21.2935 49.6512 15.807 48.2451 11.5588 46.2021C6.78249 43.9053 4.04296 40.9789 4.04296 38.1741C4.04296 35.7951 6.00443 33.3225 9.56571 31.2115C10.5264 30.6425 10.8433 29.4022 10.2743 28.442C9.70469 27.4813 8.46442 27.1644 7.50422 27.7334C1.30185 31.41 0 35.4403 0 38.1741C0 42.6592 3.48284 46.8043 9.80681 49.846C14.7152 52.206 21.0645 53.7868 27.9817 54.3985L25.7576 56.6227C24.9684 57.4118 24.9684 58.6921 25.7576 59.4817C26.1524 59.876 26.6699 60.0734 27.1873 60.0734C27.7043 60.0734 28.2218 59.876 28.6166 59.4817L34.0072 54.0911C34.7963 53.3015 34.7963 52.0212 34.0072 51.2321Z" fill="#1690DF"/>
<path d="M21.1719 34.1254V33.6389C21.1719 31.9233 20.1217 31.5906 18.7135 31.5906C17.8428 31.5906 17.5611 30.8226 17.5611 30.0545C17.5611 29.2859 17.8428 28.5179 18.7135 28.5179C19.6863 28.5179 20.7107 28.3899 20.7107 26.3158C20.7107 24.8308 19.8658 24.4723 18.8156 24.4723C17.5611 24.4723 16.921 24.7797 16.921 25.7783C16.921 26.6485 16.5367 27.2376 15.0516 27.2376C13.2081 27.2376 12.978 26.8533 12.978 25.6241C12.978 23.6274 14.4115 21.041 18.8156 21.041C22.0679 21.041 24.5257 22.2186 24.5257 25.6757C24.5257 27.5445 23.8346 29.2859 22.5543 29.875C24.0651 30.4383 25.1659 31.5648 25.1659 33.6389V34.1254C25.1659 38.3247 22.2726 39.9124 18.6877 39.9124C14.2836 39.9124 12.5938 37.2239 12.5938 35.0729C12.5938 33.9206 13.0802 33.6132 14.4884 33.6132C16.1271 33.6132 16.5367 33.9716 16.5367 34.945C16.5367 36.1484 17.6638 36.4301 18.8156 36.4301C20.557 36.4301 21.1719 35.7899 21.1719 34.1254Z" fill="#1690DF"/>
<path d="M40.7074 33.6389V33.8695C40.7074 38.2736 37.9674 39.9124 34.434 39.9124C30.9006 39.9124 28.1348 38.2736 28.1348 33.8695V27.0839C28.1348 22.6798 30.9769 21.041 34.6646 21.041C38.9918 21.041 40.7074 23.7295 40.7074 25.8547C40.7074 27.0839 40.1184 27.4676 38.8381 27.4676C37.7373 27.4676 36.764 27.186 36.764 26.0084C36.764 25.0355 35.7401 24.5233 34.5366 24.5233C33.0258 24.5233 32.1293 25.3172 32.1293 27.0839V29.388C32.9489 28.4921 34.1013 28.2615 35.3305 28.2615C38.249 28.2615 40.7074 29.5418 40.7074 33.6389ZM32.1293 34.1512C32.1293 35.9178 33 36.6859 34.434 36.6859C35.868 36.6859 36.7129 35.9178 36.7129 34.1512V33.9206C36.7129 32.0512 35.868 31.3342 34.4082 31.3342C33.0258 31.3342 32.1293 32.0002 32.1293 33.69V34.1512Z" fill="#1690DF"/>
<path d="M43.8066 33.8695V27.0839C43.8066 22.6798 46.5462 21.041 50.0801 21.041C53.6135 21.041 56.3788 22.6798 56.3788 27.0839V33.8695C56.3788 38.2736 53.6135 39.9124 50.0801 39.9124C46.5462 39.9124 43.8066 38.2736 43.8066 33.8695ZM52.3842 27.0839C52.3842 25.3172 51.5141 24.5233 50.0801 24.5233C48.6461 24.5233 47.8012 25.3172 47.8012 27.0839V33.8695C47.8012 35.6362 48.6461 36.4301 50.0801 36.4301C51.5141 36.4301 52.3842 35.6362 52.3842 33.8695V27.0839Z" fill="#1690DF"/>
<path d="M61.2305 21.0234C57.8861 21.0234 55.166 18.3028 55.166 14.959C55.166 11.6151 57.8861 8.89453 61.2305 8.89453C64.5743 8.89453 67.2949 11.6151 67.2949 14.959C67.2949 18.3028 64.5743 21.0234 61.2305 21.0234ZM61.2305 12.9375C60.1155 12.9375 59.209 13.8445 59.209 14.959C59.209 16.0739 60.1155 16.9805 61.2305 16.9805C62.3449 16.9805 63.2519 16.0739 63.2519 14.959C63.2519 13.8445 62.3449 12.9375 61.2305 12.9375Z" fill="#1690DF"/>
</g>
<defs>
<clipPath id="clip0_1147_14915">
<rect width="69" height="69" fill="white"/>
</clipPath>
</defs>
</svg>
