<svg width="24" height="24" viewBox="0 0 24 24" fill="none" xmlns="http://www.w3.org/2000/svg">
<path fill-rule="evenodd" clip-rule="evenodd" d="M9.06548 8.03751L7.22661 7.42462C6.92196 7.32306 6.71634 7.03775 6.71634 6.71662V2.239C6.71634 1.82688 7.05037 1.49268 7.46267 1.49268H16.4179C16.83 1.49268 17.164 1.82688 17.164 2.239V6.71662C17.164 7.03775 16.9586 7.32306 16.6538 7.42462L14.8149 8.03751C17.5085 9.16426 19.4029 11.8254 19.4029 14.9255C19.4029 19.0444 16.059 22.3883 11.9403 22.3883C7.82142 22.3883 4.47754 19.0444 4.47754 14.9255C4.47754 11.8254 6.37211 9.16426 9.06548 8.03751ZM11.9403 20.8958C8.64512 20.8958 5.97002 18.2207 5.97002 14.9255C5.97002 11.6305 8.64512 8.95542 11.9403 8.95542C15.2353 8.95542 17.9104 11.6305 17.9104 14.9255C17.9104 18.2207 15.2353 20.8958 11.9403 20.8958ZM10.4351 16.4182L9.63718 18.2137C9.4699 18.5902 9.0284 18.76 8.65211 18.5927C8.27563 18.4254 8.10584 17.9839 8.27312 17.6076L11.2583 10.8912C11.3781 10.6216 11.6453 10.4479 11.9403 10.4479C12.2351 10.4479 12.5023 10.6216 12.6221 10.8912L15.6073 17.6076C15.7746 17.9839 15.6048 18.4254 15.2285 18.5927C14.852 18.76 14.4107 18.5902 14.2434 18.2137L13.4453 16.4182H10.4351ZM11.0985 14.9255H12.7819L11.9403 13.0317L11.0985 14.9255ZM8.20882 2.98533V6.17877L11.9403 7.42247L15.6716 6.17877V2.98533H8.20882Z" fill="black"/>
</svg>
