<svg width="24" height="24" viewBox="0 0 24 24" fill="none" xmlns="http://www.w3.org/2000/svg">
<path d="M18.5623 9.98601V1.6286C18.5623 0.730562 17.8317 0 16.9336 0H3.69159C2.79355 0 2.06299 0.730562 2.06299 1.6286V18.9955C2.06299 19.8936 2.79355 20.6241 3.69159 20.6241H13.6875V23.249C13.6875 23.8225 14.3086 24.1864 14.8095 23.9002L17.0623 22.6128C19.5506 24.0347 19.4205 23.999 19.6872 23.999C20.1014 23.999 20.4372 23.6627 20.4372 23.249V18.1386C23.1065 15.5742 22.0492 11.1163 18.5623 9.98601ZM3.69159 19.1242C3.62062 19.1242 3.56292 19.0665 3.56292 18.9955V1.6286C3.56292 1.55764 3.62062 1.49994 3.69159 1.49994H16.9337C17.0046 1.49994 17.0623 1.55764 17.0623 1.6286V9.74958C14.3744 9.74958 12.1876 11.9364 12.1876 14.6244C12.1876 16.0038 12.7635 17.251 13.6875 18.1386V19.1242H3.69159ZM18.9373 21.9567L17.4344 21.0979C17.2038 20.9661 16.9208 20.9661 16.6902 21.0979L15.1874 21.9567V19.1239C16.3833 19.6241 17.7398 19.6248 18.9372 19.1239L18.9373 21.9567ZM17.0623 17.9992C15.2014 17.9992 13.6875 16.4853 13.6875 14.6244C13.6875 12.7635 15.2014 11.2495 17.0623 11.2495C18.9233 11.2495 20.4372 12.7635 20.4372 14.6244C20.4372 16.4853 18.9233 17.9992 17.0623 17.9992Z" fill="black"/>
<path d="M16.6866 16.5464C16.3936 16.5464 16.3563 16.4771 15.1463 15.6704C14.8017 15.4406 14.7085 14.975 14.9383 14.6304C15.1681 14.2857 15.6337 14.1926 15.9783 14.4223L16.4793 14.7563L17.5632 13.1304C17.793 12.7858 18.2587 12.6927 18.6033 12.9224C18.9479 13.1522 19.041 13.6178 18.8113 13.9624L17.3113 16.2123C17.1667 16.4291 16.9289 16.5464 16.6866 16.5464Z" fill="black"/>
<path d="M12.9374 5.24994H6.56271C6.14854 5.24994 5.81274 4.91414 5.81274 4.49997C5.81274 4.0858 6.14854 3.75 6.56271 3.75H12.9374C13.3517 3.75 13.6874 4.0858 13.6874 4.49997C13.6874 4.91414 13.3516 5.24994 12.9374 5.24994Z" fill="black"/>
<path d="M12.9374 8.24945H6.56271C6.14854 8.24945 5.81274 7.91365 5.81274 7.49948C5.81274 7.08531 6.14854 6.74951 6.56271 6.74951H12.9374C13.3517 6.74951 13.6874 7.08531 13.6874 7.49948C13.6874 7.91365 13.3516 8.24945 12.9374 8.24945Z" fill="black"/>
<path d="M10.3126 11.2494H6.56271C6.14854 11.2494 5.81274 10.9136 5.81274 10.4995C5.81274 10.0853 6.14854 9.74951 6.56271 9.74951H10.3126C10.7267 9.74951 11.0625 10.0853 11.0625 10.4995C11.0625 10.9136 10.7267 11.2494 10.3126 11.2494Z" fill="black"/>
</svg>
