<svg width="24" height="24" viewBox="0 0 24 24" fill="none" xmlns="http://www.w3.org/2000/svg">
<g clip-path="url(#clip0_1334_2315)">
<path d="M22.3042 14.6486H18.9656V0H17.5594V14.6486H14.1838L12.5249 16.4703V24H13.9312V20.7354H15.0897V24H16.4959V20.7354H17.6068V24H19.0131V20.7354H20.124V24H21.5302V20.7354H22.5937V24H23.9999V16.4654L22.3042 14.6486ZM13.9312 17.0147L14.8053 16.0549H21.693L22.5937 17.0197V19.3292H13.9312V17.0147Z" fill="black"/>
<path d="M0 10.8296V12.2358H0.673462L1.79846 24H10.4236L11.5486 12.2358H12.2221V10.8296H0ZM7.6311 12.2358C7.51721 12.9725 6.87891 13.5383 6.11096 13.5383C5.34302 13.5383 4.70471 12.9725 4.59082 12.2358H7.6311ZM3.07654 22.5938L2.94525 21.2199H9.27686L9.14557 22.5938H3.07654ZM9.41125 19.8137H2.81067L2.08612 12.2358H3.17688C3.29755 13.7496 4.56683 14.9445 6.11096 14.9445C7.65509 14.9445 8.92456 13.7496 9.04523 12.2358H10.136L9.41125 19.8137Z" fill="black"/>
</g>
<defs>
<clipPath id="clip0_1334_2315">
<rect width="24" height="24" fill="white"/>
</clipPath>
</defs>
</svg>
