<svg width="24" height="24" viewBox="0 0 24 24" fill="none" xmlns="http://www.w3.org/2000/svg">
<g clip-path="url(#clip0_1309_2021)">
<path d="M3.97411 17.0454L0 21.0195L2.98058 24.0001L6.95488 20.026L9.4387 22.5098L10.7635 13.2368L1.49029 14.5614L3.97411 17.0454ZM9.10746 14.8926L8.44517 19.5292L6.95488 18.0389L2.98058 22.013L1.98706 21.0195L5.96135 17.0454L4.47088 15.5549L9.10746 14.8926Z" fill="black"/>
<path d="M20.0259 6.95488L24 2.98058L21.0195 0L17.0452 3.97411L14.5613 1.49029L13.2366 10.7633L22.5097 9.4387L20.0259 6.95488ZM14.8926 9.10746L15.5549 4.47106L17.0452 5.96135L21.0195 1.98706L22.013 2.98058L18.0387 6.95488L19.5292 8.44517L14.8926 9.10746Z" fill="black"/>
<path d="M22.5096 14.5614L13.2366 13.2368L14.5613 22.5098L17.0452 20.026L21.0193 24.0001L23.9999 21.0195L20.0257 17.0452L22.5096 14.5614ZM22.0128 21.0195L21.0193 22.013L17.045 18.0389L15.5547 19.5292L14.8924 14.8926L19.529 15.5549L18.0385 17.0454L22.0128 21.0195Z" fill="black"/>
<path d="M6.95488 3.97411L2.98058 0L0 2.98058L3.97411 6.95488L1.49029 9.4387L10.7633 10.7633L9.43852 1.49029L6.95488 3.97411ZM4.47088 8.44517L5.96117 6.95488L1.98706 2.98058L2.98058 1.98706L6.95488 5.96135L8.44517 4.47106L9.10746 9.10746L4.47088 8.44517Z" fill="black"/>
</g>
<defs>
<clipPath id="clip0_1309_2021">
<rect width="24" height="24" fill="white"/>
</clipPath>
</defs>
</svg>
