<svg width="24" height="24" viewBox="0 0 24 24" fill="none" xmlns="http://www.w3.org/2000/svg">
<path d="M19.8216 2.81541C18.9017 2.81541 18.5781 2.34708 17.9339 1.28784C17.7492 0.984141 17.5398 0.639891 17.2936 0.295078L17.0829 0H6.91712L6.70646 0.295078C6.46027 0.639844 6.25093 0.984094 6.06615 1.28784C5.4219 2.34713 5.09837 2.81541 4.17845 2.81541H2.1377V11.9733C2.1377 18.1069 6.3099 20.8963 10.2205 23.0294L12.0001 24L13.7796 23.0294C17.6903 20.8963 21.8624 18.1069 21.8624 11.9733V2.81541H19.8216ZM13.1049 21.7925L12.0001 22.3951L10.8953 21.7925C7.1769 19.7644 3.54662 17.3355 3.54662 11.9733V4.22433H4.17849C5.92927 4.22433 6.61088 3.10369 7.26995 2.01994C7.39191 1.81936 7.5167 1.60955 7.65141 1.40419H16.3486C16.4834 1.6095 16.6081 1.81936 16.7301 2.01994C17.3892 3.10369 18.0708 4.22433 19.8216 4.22433H20.4534V11.9733C20.4534 17.3355 16.8232 19.7644 13.1049 21.7925Z" fill="black"/>
<path d="M11.9999 5.6333C10.4462 5.6333 9.18213 6.89738 9.18213 8.4511C9.18213 10.0048 10.4462 11.2689 11.9999 11.2689C13.5536 11.2689 14.8177 10.0048 14.8177 8.4511C14.8177 6.89738 13.5536 5.6333 11.9999 5.6333ZM11.9999 9.85997C11.2231 9.85997 10.591 9.22796 10.591 8.45105C10.591 7.67414 11.223 7.04213 11.9999 7.04213C12.7768 7.04213 13.4088 7.67414 13.4088 8.45105C13.4088 9.22796 12.7768 9.85997 11.9999 9.85997Z" fill="black"/>
<path d="M12.7046 11.269H12.0002H11.2957C9.35355 11.269 7.77344 12.8492 7.77344 14.7913V16.9517H16.2269V14.7913C16.2269 12.8492 14.6468 11.269 12.7046 11.269ZM14.818 15.5427H9.18236V14.7913C9.18236 13.626 10.1304 12.678 11.2957 12.678H12.7046C13.87 12.678 14.818 13.626 14.818 14.7913V15.5427H14.818Z" fill="black"/>
</svg>
