<svg width="24" height="24" viewBox="0 0 24 24" fill="none" xmlns="http://www.w3.org/2000/svg">
<g clip-path="url(#clip0_1309_1109)">
<path d="M16.8203 14.207H15.2263C16.3898 13.5031 17.3055 12.4292 17.8088 11.1497H19.257V6.60516H18.1956V5.2326C18.1956 2.34723 15.8483 0 12.963 0H11.0405C8.15533 0 5.80811 2.34723 5.80811 5.23242V6.60516H4.77063V11.1495H6.21881C6.72217 12.4292 7.63788 13.5029 8.80133 14.2068H7.2074C4.13782 14.2068 1.64062 16.7042 1.64062 19.7736V24H22.387V19.7737C22.387 16.7042 19.8898 14.207 16.8203 14.207ZM11.0405 1.41138H12.9631C14.9451 1.41138 16.5791 2.92822 16.7661 4.862C15.6233 3.51178 13.9171 2.65283 12.0139 2.65283C10.0959 2.65283 8.37799 3.52496 7.23523 4.89331C7.40753 2.9447 9.04797 1.41138 11.0405 1.41138ZM7.20062 8.87732C7.20062 6.22339 9.3598 4.06421 12.0139 4.06421C14.6678 4.06421 16.827 6.22339 16.827 8.87732C16.827 9.72748 16.6051 10.5267 16.2167 11.2207H12.9721C12.8108 11.0836 12.6022 11.0004 12.3743 11.0004C11.8638 11.0004 11.4485 11.4157 11.4485 11.9264C11.4485 12.4369 11.8638 12.8522 12.3743 12.8522C12.6022 12.8522 12.8108 12.769 12.9721 12.6319H15.0218C14.1973 13.2938 13.151 13.6906 12.0139 13.6906C9.3598 13.6906 7.20062 11.5314 7.20062 8.87732ZM14.4294 15.6183L12.0139 18.4768L9.59821 15.6183H14.4294ZM20.9756 22.5886H3.052V19.7737C3.052 17.4824 4.91602 15.6183 7.2074 15.6183H7.75031L12.0139 20.6633L16.2772 15.6183H16.8203C19.1116 15.6183 20.9756 17.4824 20.9756 19.7737V22.5886Z" fill="black"/>
<path d="M15.6428 19.7583H19.6349V21.1695H15.6428V19.7583Z" fill="black"/>
</g>
<defs>
<clipPath id="clip0_1309_1109">
<rect width="24" height="24" fill="white"/>
</clipPath>
</defs>
</svg>
