<svg width="24" height="24" viewBox="0 0 24 24" fill="none" xmlns="http://www.w3.org/2000/svg">
<g clip-path="url(#clip0_1309_161)">
<path d="M23.0156 22.5912V10.751H18.663V22.5912H17.1228V16.7918H12.7701V22.5912H11.2299V14.2951H6.87727V22.5912H5.33709V18.5996H0.984375V22.5912H0V24H24V22.5912H23.0156ZM2.39062 22.5912V20.0084H3.9308V22.5912H2.39062ZM8.28347 22.5912V15.7038H9.82364V22.5912H8.28347ZM14.1764 22.5912V18.2005H15.7165V22.5912H14.1764ZM20.0692 22.5912V12.1598H21.6094V22.5912H20.0692Z" fill="black"/>
<path d="M10.9893 8.0955L14.9225 12.0392L21.168 5.7825L22.5832 7.20047L23.9491 0L16.7538 1.35984L18.185 2.79384L14.9228 6.06197L10.9895 2.11819L0.122559 13.0094L3.10339 15.9956L10.9893 8.0955ZM10.9893 4.11112L14.9224 8.05472L20.1737 2.79394L19.6306 2.24977L22.1824 1.76747L21.698 4.32103L21.1681 3.79008L14.9229 10.0465L10.9897 6.10275L3.10339 14.0033L2.11109 13.0092L10.9893 4.11112Z" fill="black"/>
</g>
<defs>
<clipPath id="clip0_1309_161">
<rect width="24" height="24" fill="white"/>
</clipPath>
</defs>
</svg>
