<svg width="24" height="24" viewBox="0 0 24 24" fill="none" xmlns="http://www.w3.org/2000/svg">
<path fill-rule="evenodd" clip-rule="evenodd" d="M8.97204 1.25051C9.29922 1.26255 9.58079 1.48545 9.6676 1.80114L14.5702 19.6288L17.8019 11.4031C17.9147 11.1161 18.1916 10.9274 18.5 10.9274H23C23.4142 10.9274 23.75 11.2632 23.75 11.6774C23.75 12.0916 23.4142 12.4274 23 12.4274H19.0111L15.1425 22.2743C15.0244 22.5748 14.7272 22.7661 14.4047 22.749C14.0822 22.7318 13.8069 22.5102 13.7213 22.1989L8.85263 4.49464L6.20658 11.9289C6.1002 12.2278 5.81726 12.4274 5.5 12.4274H1C0.585786 12.4274 0.25 12.0916 0.25 11.6774C0.25 11.2632 0.585786 10.9274 1 10.9274H4.97085L8.23787 1.74851C8.34766 1.44006 8.64485 1.23847 8.97204 1.25051Z" fill="black"/>
</svg>
