<svg width="24" height="24" viewBox="0 0 24 24" fill="none" xmlns="http://www.w3.org/2000/svg">
<g clip-path="url(#clip0_1309_1370)">
<path d="M18.8327 5.92464L17.9018 6.97919C19.8214 8.67358 20.9224 11.1126 20.9224 13.671C20.9224 18.5908 16.9198 22.5934 11.9999 22.5934C7.08005 22.5934 3.07748 18.5908 3.07748 13.671C3.07748 9.02322 6.64974 5.19484 11.1927 4.78548L9.20204 7.17681L10.2831 8.07667L13.6317 4.05409L10.2849 0L9.20026 0.895502L11.2425 3.36929C8.76882 3.54741 6.46749 4.59596 4.69622 6.36728C2.74537 8.31817 1.6709 10.9121 1.6709 13.671C1.6709 16.43 2.74532 19.0238 4.69622 20.9747C6.64711 22.9257 9.24094 24 12 24C14.759 24 17.3528 22.9257 19.3037 20.9747C21.2546 19.0238 22.329 16.43 22.329 13.671C22.329 10.7094 21.0546 7.88594 18.8327 5.92464Z" fill="black"/>
<path d="M8.75853 14.8603C8.81693 14.7955 8.9029 14.7225 9.01648 14.6412C9.12996 14.5602 9.25329 14.4791 9.38642 14.3979C9.5194 14.3168 9.65412 14.2372 9.79043 14.1594C9.92675 14.0815 10.0436 14.0134 10.1409 13.9549C10.2837 13.8707 10.4232 13.7782 10.5596 13.6775C10.6959 13.5769 10.8191 13.4601 10.9295 13.327C11.0398 13.194 11.1291 13.0432 11.1972 12.8743C11.2654 12.7056 11.2994 12.5141 11.2994 12.2999C11.2994 11.7807 11.1128 11.3687 10.7397 11.0636C10.3663 10.7586 9.82939 10.606 9.12842 10.606C8.84276 10.606 8.56863 10.632 8.30581 10.6838C8.04298 10.7358 7.8011 10.8056 7.58051 10.8932C7.35982 10.9807 7.16187 11.0798 6.98665 11.1901C6.81138 11.3005 6.67174 11.4139 6.56801 11.5308L7.56101 12.6796C7.74916 12.4655 7.94388 12.2919 8.14512 12.1588C8.34621 12.0258 8.58321 11.9592 8.85579 11.9592C9.09584 11.9592 9.28081 12.0144 9.41075 12.1247C9.54054 12.2352 9.60546 12.3812 9.60546 12.5628C9.60546 12.6537 9.57945 12.7332 9.52761 12.8013C9.47557 12.8694 9.3896 12.9457 9.2696 13.03C9.14942 13.1144 8.98732 13.2118 8.78285 13.322C8.57843 13.4324 8.32362 13.5719 8.0186 13.7406C7.73295 13.903 7.49604 14.0685 7.30793 14.2371C7.11958 14.406 6.97038 14.5893 6.86008 14.7872C6.74965 14.9853 6.67174 15.2043 6.62646 15.4444C6.58099 15.6845 6.55835 15.9572 6.55835 16.2621H11.4066V14.8602H8.75853V14.8603Z" fill="black"/>
<path d="M16.2351 14.7633V10.7036H15.174L12.0002 14.773V16.1652H14.6775V17.4989H16.2352V16.1652H17.0919V14.7633H16.2351ZM14.8624 14.7632H13.5385L14.8624 13.0401V14.7632Z" fill="black"/>
<path d="M14.3401 3.66611L13.9399 5.01465L15.3706 5.4392L15.7708 4.09067L14.3401 3.66611Z" fill="black"/>
<path d="M16.8372 4.58887L16.0681 5.7666L17.2992 6.57055L18.0683 5.39282L16.8372 4.58887Z" fill="black"/>
</g>
<defs>
<clipPath id="clip0_1309_1370">
<rect width="24" height="24" fill="white"/>
</clipPath>
</defs>
</svg>
