<svg width="24" height="24" viewBox="0 0 24 24" fill="none" xmlns="http://www.w3.org/2000/svg">
<g clip-path="url(#clip0_1309_1901)">
<path d="M18.2404 9.99511V3.60291L11.9999 0L5.75948 3.60291V9.99511L0.223633 13.1912V20.3971L6.4641 24L11.9999 20.8039L17.5357 24L23.7762 20.3971V13.1912L18.2404 9.99511ZM17.5357 15.9805L13.4091 13.598L17.5357 11.2155L21.6622 13.598L17.5357 15.9805ZM7.16873 9.99511V5.23022L11.2952 7.61264V12.3775L7.16873 9.99511ZM12.7045 12.3776V7.61269L16.8311 5.23022V9.99511L12.7045 12.3776ZM10.5906 13.5981L6.46405 15.9805L2.33755 13.5981L6.46405 11.2156L10.5906 13.5981ZM7.16873 17.201L11.2953 14.8185V19.5834L7.16873 21.9659V17.201ZM16.1264 4.00973L11.9999 6.3922L7.8734 4.00973L11.9999 1.62731L16.1264 4.00973ZM1.63293 14.8185L5.75943 17.201V21.9659L1.63293 19.5834V14.8185ZM12.7045 14.8185L16.8311 17.201V21.9659L12.7045 19.5834V14.8185ZM18.2404 21.9659V17.201L22.3669 14.8185V19.5834L18.2404 21.9659Z" fill="black"/>
</g>
<defs>
<clipPath id="clip0_1309_1901">
<rect width="24" height="24" fill="white"/>
</clipPath>
</defs>
</svg>
