<svg width="24" height="24" viewBox="0 0 24 24" fill="none" xmlns="http://www.w3.org/2000/svg">
<g clip-path="url(#clip0_1334_2297)">
<path d="M12.7031 9.70288V7.0498H11.2969V9.70288C10.4084 9.99829 9.76562 10.8368 9.76562 11.8232C9.76562 13.0552 10.768 14.0576 12 14.0576C13.2321 14.0576 14.2344 13.0552 14.2344 11.8232C14.2344 10.8368 13.5916 9.99829 12.7031 9.70288ZM12 12.6514C11.5434 12.6514 11.1719 12.2798 11.1719 11.8232C11.1719 11.3666 11.5434 10.9951 12 10.9951C12.4567 10.9951 12.8282 11.3666 12.8282 11.8232C12.8282 12.2798 12.4566 12.6514 12 12.6514Z" fill="black"/>
<path d="M5.59604 11.5115H4.39881C4.47967 10.6306 4.71128 9.79276 5.06678 9.02349L6.04665 9.58923L6.74978 8.37141L5.77187 7.80681C6.27184 7.10241 6.88806 6.48624 7.5924 5.98627L8.15701 6.96418L9.37482 6.26105L8.80909 5.28113C9.57836 4.92563 10.4162 4.6944 11.2971 4.61359V5.74599H12.7034V4.61354C13.5842 4.69435 14.4221 4.92559 15.1914 5.28109L14.6257 6.26101L15.8435 6.96413L16.4081 5.98623C17.1124 6.4862 17.7287 7.10237 18.2286 7.80676L17.2507 8.37137L17.9538 9.58918L18.9337 9.02345C19.2892 9.79276 19.5208 10.6306 19.6017 11.5114H18.4044V12.9177H21.04V12.2146C21.04 7.23001 16.9848 3.1748 12.0003 3.1748C7.01575 3.1748 2.96045 7.23006 2.96045 12.2146V12.9177H5.59609L5.59604 11.5115Z" fill="black"/>
<path d="M24 19.964V0H0V19.964H8.96681V20.8594C8.96681 21.8157 8.18878 22.5938 7.23244 22.5938H5.0625V24H18.9375V22.5938H16.7676C15.8112 22.5938 15.0332 21.8157 15.0332 20.8594V19.964H24ZM22.5938 1.40625V15.2765H1.40625V1.40625H22.5938ZM1.40625 16.6827H22.5938V18.5577H1.40625V16.6827ZM14.151 22.5938H9.849C10.1798 22.0964 10.373 21.5002 10.373 20.8594V19.964H13.6269V20.8594C13.6269 21.5002 13.8202 22.0964 14.151 22.5938Z" fill="black"/>
</g>
<defs>
<clipPath id="clip0_1334_2297">
<rect width="24" height="24" fill="white"/>
</clipPath>
</defs>
</svg>
