<svg width="24" height="24" viewBox="0 0 24 24" fill="none" xmlns="http://www.w3.org/2000/svg">
<g clip-path="url(#clip0_1309_1601)">
<path d="M11.9999 0C5.38328 0 0.000244141 5.36204 0.000244141 11.9528C0.000244141 17.7766 4.21931 22.7908 9.75961 23.8418L10.5937 24V11.8657H8.9657L11.9999 6.30298L15.0342 11.8657H13.4062V24L14.2403 23.8418C19.7825 22.7905 23.9996 17.7745 23.9996 11.9528C23.9996 5.36204 18.6166 0 11.9999 0ZM14.8124 22.2647V13.272H17.403L11.9999 3.36638L6.59689 13.272H9.18751V22.2647C4.69663 21.0078 1.40646 16.7208 1.40646 11.9528C1.40646 6.13742 6.15867 1.40621 11.9999 1.40621C17.8412 1.40621 22.5934 6.13742 22.5934 11.9528C22.5934 16.7208 19.3033 21.0078 14.8124 22.2647Z" fill="black"/>
</g>
<defs>
<clipPath id="clip0_1309_1601">
<rect width="24" height="24" fill="white"/>
</clipPath>
</defs>
</svg>
