<svg width="24" height="24" viewBox="0 0 24 24" fill="none" xmlns="http://www.w3.org/2000/svg">
<g clip-path="url(#clip0_1309_524)">
<path d="M6.51336 15.3149C5.22659 15.3149 4.17969 16.3618 4.17969 17.6486C4.17969 18.9354 5.22659 19.9823 6.51336 19.9823C7.80012 19.9823 8.84703 18.9354 8.84703 17.6486C8.84703 16.3618 7.80017 15.3149 6.51336 15.3149ZM6.51336 18.5761C6.002 18.5761 5.58594 18.16 5.58594 17.6487C5.58594 17.1373 6.002 16.7212 6.51336 16.7212C7.02472 16.7212 7.44078 17.1373 7.44078 17.6487C7.44078 18.16 7.02477 18.5761 6.51336 18.5761Z" fill="black"/>
<path d="M24 17.6394C24 15.9209 22.8341 14.4358 21.1648 14.0279L18.0444 13.2654L17.766 12.2271C18.7147 11.5661 19.3647 10.505 19.4693 9.29032C19.8875 8.91626 20.6051 8.1154 20.6051 7.02546C20.6056 6.88924 20.5905 6.75546 20.5617 6.62566H21.4187V5.21941H20.4401C20.577 2.39824 18.3192 -0.00822885 15.4855 2.11499e-05C12.6518 -0.00822885 10.3941 2.39829 10.531 5.21941H9.60038V6.62566H10.455C10.4262 6.75358 10.4104 6.88647 10.4104 7.02302C10.4104 8.10766 11.0989 8.90726 11.501 9.28169C11.6032 10.5004 12.2545 11.5652 13.2059 12.2277L12.927 13.2654L11.5157 13.6102L11.0012 12.7189L9.42891 13.4981C9.18262 13.3247 8.92228 13.1741 8.64956 13.0475L8.53823 11.2969H4.48805L4.37677 13.0475C4.10409 13.1741 3.84375 13.3247 3.59742 13.4981L2.02505 12.7189L0 16.2265L1.46119 17.1987C1.4347 17.4979 1.4347 17.7991 1.46119 18.0983L0 19.0705L2.02505 22.578L3.59742 21.7988C3.84375 21.9723 4.10409 22.1228 4.37677 22.2494L4.48805 24H8.53823L8.64952 22.2494C8.92223 22.1228 9.18262 21.9722 9.42886 21.7988L11.0012 22.578L11.8108 21.1758H24V17.6394ZM19.0338 5.21941H16.1887V1.47654C17.9086 1.81287 19.1472 3.42171 19.0338 5.21941ZM14.7824 1.47654V5.21941H11.9373C11.8239 3.42176 13.0623 1.81287 14.7824 1.47654ZM11.8167 7.02302C11.8038 6.8043 11.9949 6.62566 12.2141 6.62566H18.8053C19.02 6.62566 19.2145 6.80894 19.1989 7.02302C19.1225 8.06458 18.0779 8.57337 18.0779 8.57337C18.2355 10.1231 17.0756 11.5471 15.4855 11.5366C13.8995 11.5468 12.7381 10.129 12.8932 8.58185C12.8932 8.58185 11.8776 8.06126 11.8167 7.02302ZM15.4855 12.9429C15.8249 12.9429 16.1542 12.8997 16.469 12.8198L16.6829 13.6175L15.4855 14.7053L14.2884 13.6177L14.5028 12.8201C14.8174 12.8998 15.1465 12.9429 15.4855 12.9429ZM10.035 18.7694L11.1486 19.5103L10.4432 20.732L9.24333 20.1374C8.70047 20.6615 8.02758 21.0511 7.30341 21.2587L7.21856 22.5938H5.80781L5.72287 21.2587C4.99847 21.0509 4.32638 20.6621 3.78295 20.1374L2.58305 20.732L1.87762 19.5103L2.99128 18.7694C2.81058 18.0391 2.81053 17.258 2.99128 16.5277L1.87762 15.7868L2.58305 14.565L3.78295 15.1597C4.32586 14.6355 4.99875 14.246 5.72287 14.0383L5.80781 12.7031H7.21856L7.30345 14.0382C8.02758 14.2458 8.70047 14.6353 9.24337 15.1595L10.4433 14.5649L11.1487 15.7866L10.0351 16.5275C10.2157 17.2581 10.2157 18.0388 10.035 18.7694ZM11.5651 18.0983C11.5916 17.799 11.5916 17.498 11.5651 17.1987L13.0263 16.2265L12.2482 14.8788L13.3018 14.6214L14.7824 15.9664V19.7696H12.6227L13.0263 19.0705L11.5651 18.0983ZM22.5938 19.7696H20.4401V17.6394H19.0338V19.7696H16.1887V15.9664L17.6693 14.6213L20.831 15.3939C21.8689 15.6475 22.5938 16.5709 22.5938 17.6394V19.7696Z" fill="black"/>
</g>
<defs>
<clipPath id="clip0_1309_524">
<rect width="24" height="24" fill="white"/>
</clipPath>
</defs>
</svg>
