<svg width="24" height="24" viewBox="0 0 24 24" fill="none" xmlns="http://www.w3.org/2000/svg">
<path d="M19.7578 15.2366C20.9131 13.6521 21.5959 11.7024 21.5959 9.59587C21.5959 4.3047 17.2912 0 12 0C6.70877 0 2.40417 4.3047 2.40417 9.59587C2.40417 11.7024 3.08701 13.6521 4.24217 15.2366L1.45874 20.6801L5.43603 20.9105L7.95145 24L10.4725 19.0697C10.9701 19.1497 11.4802 19.1918 12 19.1918C12.5198 19.1918 13.0299 19.1497 13.5275 19.0697L16.0485 24L18.5639 20.9105L22.5412 20.6801L19.7578 15.2366ZM16.319 21.4419L14.9337 18.7326C16.3956 18.2621 17.7058 17.4501 18.7694 16.3905L20.3091 19.4017L17.8648 19.5433L16.319 21.4419ZM6.13518 19.5433L3.69092 19.4017L5.2306 16.3905C6.29413 17.4501 7.60435 18.2621 9.06636 18.7326L7.68099 21.4419L6.13518 19.5433ZM3.80954 9.59587C3.80954 5.07965 7.48377 1.40542 12 1.40542C16.5162 1.40542 20.1904 5.07965 20.1904 9.59587C20.1904 14.1121 16.5162 17.7863 12 17.7863C7.48377 17.7863 3.80954 14.1121 3.80954 9.59587Z" fill="black"/>
<path d="M12 15.7954C15.4184 15.7954 18.1994 13.0143 18.1994 9.59592C18.1994 6.17753 15.4184 3.39648 12 3.39648C8.58158 3.39648 5.80054 6.17757 5.80054 9.59592C5.80054 13.0143 8.58163 15.7954 12 15.7954ZM12 4.8019C14.6434 4.8019 16.794 6.95247 16.794 9.59592C16.794 12.2394 14.6434 14.39 12 14.39C9.35653 14.39 7.20596 12.2394 7.20596 9.59592C7.20596 6.95247 9.35657 4.8019 12 4.8019Z" fill="black"/>
<path d="M14.6362 8.51574L13.6424 7.52197L11.6408 9.52357L10.6385 8.52137L9.64478 9.51514L11.6408 11.5112L14.6362 8.51574Z" fill="black"/>
</svg>
