<svg width="24" height="24" viewBox="0 0 24 24" fill="none" xmlns="http://www.w3.org/2000/svg">
<g clip-path="url(#clip0_1309_147)">
<path d="M18.7059 18.6251V15.6704H17.2942V18.6251L16.3815 17.7125L15.3833 18.7107L18.0001 21.3275L20.6168 18.7107L19.6186 17.7125L18.7059 18.6251Z" fill="black"/>
<path d="M12.7059 5.64697H11.2941V11.294H7.05884V12.7058H12.7059V5.64697Z" fill="black"/>
<path d="M24 12C24 5.36791 18.633 0 12 0C5.36791 0 0 5.36696 0 12C0 18.6321 5.36696 24 12 24C13.2074 24 14.3937 23.8216 15.5352 23.4701C16.2875 23.8104 17.122 24 18 24C21.3084 24 24 21.3084 24 18C24 17.122 23.8104 16.2875 23.4701 15.5352C23.8216 14.3938 24 13.2074 24 12ZM12 22.5882C10.3253 22.5882 8.74042 22.1968 7.33125 21.5016L8.02306 20.3033L6.80047 19.5974L6.10951 20.7942C4.96409 20.0244 3.97666 19.0372 3.20668 17.8919L4.40584 17.1996L3.69995 15.977L2.49915 16.6703C1.90202 15.4603 1.52946 14.1207 1.43586 12.7059H3.52941V11.2941H1.43586C1.52946 9.87934 1.90202 8.53972 2.49925 7.32979L3.70005 8.02306L4.40593 6.80047L3.20678 6.10814C3.97638 4.96329 4.96334 3.97633 6.10819 3.20673L6.80052 4.40588L8.02311 3.7L7.32984 2.4992C8.53977 1.90202 9.87939 1.52946 11.2942 1.43586V3.52941H12.7059V1.43586C14.1208 1.52946 15.4603 1.90202 16.6703 2.4992L15.9769 3.7L17.1995 4.40588L17.8919 3.20673C19.0367 3.97633 20.0237 4.96329 20.7932 6.10814L19.5941 6.80047L20.3 8.02306L21.5008 7.32979C22.1965 8.73934 22.5882 10.3247 22.5882 12C22.5882 12.6546 22.5285 13.302 22.411 13.9373C21.3139 12.747 19.7426 12 18 12C14.6916 12 12 14.6916 12 18C12 19.7426 12.747 21.3139 13.9373 22.411C13.3019 22.5285 12.6546 22.5882 12 22.5882ZM18 22.5882C15.47 22.5882 13.4118 20.53 13.4118 18C13.4118 15.47 15.47 13.4118 18 13.4118C20.53 13.4118 22.5882 15.47 22.5882 18C22.5882 20.53 20.53 22.5882 18 22.5882Z" fill="black"/>
</g>
<defs>
<clipPath id="clip0_1309_147">
<rect width="24" height="24" fill="white"/>
</clipPath>
</defs>
</svg>
