<svg width="24" height="24" viewBox="0 0 24 24" fill="none" xmlns="http://www.w3.org/2000/svg">
<path d="M23.906 11.6488L18.2576 1.85194C18.132 1.63416 17.8998 1.5 17.6484 1.5H6.35155C6.10021 1.5 5.86799 1.63416 5.74241 1.85194L0.0939727 11.6488C-0.0313242 11.8662 -0.0313242 12.1338 0.0939727 12.3512L5.74241 22.1481C5.86799 22.3658 6.10021 22.5 6.35155 22.5H17.6484C17.8998 22.5 18.132 22.3658 18.2576 22.1481L23.906 12.3512C24.0313 12.1338 24.0313 11.8662 23.906 11.6488ZM13.7431 2.90625L13.2712 3.34767C13.1291 3.48061 13.0484 3.66652 13.0484 3.86114V5.1112L11.976 5.68837L11.0068 4.24809C10.8581 4.02722 10.5976 3.90928 10.3334 3.94331L9.53849 4.04587L9.32389 2.90625H13.7431ZM3.27374 8.94905L4.02613 9.74152L3.66735 11.7348C3.58593 12.1351 3.90735 12.5448 4.31549 12.5611L5.71166 12.6484L5.09272 15.0003L3.51341 15.4666L1.51471 12L3.27374 8.94905ZM17.2422 21.0938H14.966L15.0485 19.9332L16.7623 18.8537C17.1127 18.6438 17.1985 18.1301 16.9351 17.8178L16.058 16.7283L18.2061 15.602L19.8265 16.6114L17.2422 21.0938ZM20.5293 15.3924L18.6081 14.1955C18.3963 14.0637 18.1306 14.0538 17.9098 14.1696L14.6473 15.8801C14.2616 16.0703 14.1483 16.6155 14.4261 16.9437L15.3447 18.0846L13.9976 18.9331C13.8082 19.0525 13.6869 19.2549 13.671 19.4782L13.5562 21.0938H6.75777L4.23585 16.7197L5.87099 16.2369C6.10686 16.1672 6.28925 15.9794 6.35183 15.7415L7.28933 12.179C7.40896 11.7659 7.0829 11.3145 6.65324 11.2983L5.19125 11.2069L5.47325 9.64022C5.51291 9.41991 5.44527 9.19388 5.29114 9.03155L4.00639 7.67836L6.75777 2.90625H7.89294L8.27929 4.9582C8.34824 5.3243 8.69024 5.5733 9.06027 5.52544L10.0826 5.39353L11.165 7.00191C11.3678 7.30425 11.7681 7.39842 12.0815 7.2285L14.0848 6.15037C14.3126 6.02775 14.4547 5.78995 14.4547 5.53125V4.1662L15.8016 2.90625H17.2422L22.4853 12L20.5293 15.3924Z" fill="black"/>
<path d="M12 8.71875C10.1907 8.71875 8.71875 10.1907 8.71875 12C8.71875 13.8093 10.1907 15.2812 12 15.2812C13.8093 15.2812 15.2812 13.8093 15.2812 12C15.2812 10.1907 13.8093 8.71875 12 8.71875ZM12 13.875C10.9661 13.875 10.125 13.0339 10.125 12C10.125 10.9661 10.9661 10.125 12 10.125C13.0339 10.125 13.875 10.9661 13.875 12C13.875 13.0339 13.0339 13.875 12 13.875Z" fill="black"/>
</svg>
