<svg width="24" height="24" viewBox="0 0 24 24" fill="none" xmlns="http://www.w3.org/2000/svg">
<g clip-path="url(#clip0_1309_1593)">
<path d="M6.34994 14.2036C4.44907 14.2036 2.90259 15.75 2.90259 17.6509C2.90259 19.5518 4.44907 21.0983 6.34994 21.0983C8.25081 21.0983 9.79729 19.5518 9.79729 17.6509C9.79729 15.75 8.25081 14.2036 6.34994 14.2036ZM6.34994 19.6919C5.22451 19.6919 4.3089 18.7763 4.3089 17.6509C4.3089 16.5255 5.22451 15.6099 6.34994 15.6099C7.47536 15.6099 8.39097 16.5255 8.39097 17.6509C8.39097 18.7763 7.47536 19.6919 6.34994 19.6919Z" fill="black"/>
<path d="M22.1387 1.86046C20.939 0.660734 19.3439 0 17.6473 0C15.9506 0 14.3555 0.660734 13.1558 1.86046L1.85836 13.1597C-0.61816 15.6363 -0.61816 19.666 1.85841 22.1425C3.09672 23.3808 4.72326 24 6.34985 24C7.97645 24 9.60299 23.3808 10.8413 22.1425L10.8413 22.1425L22.1387 10.8433C23.3384 9.64358 23.9991 8.04849 23.9991 6.35186C23.9991 4.65523 23.3384 3.0601 22.1387 1.86046ZM2.85282 21.1482C0.924569 19.2199 0.924569 16.0824 2.85282 14.1541C3.81708 13.1899 5.08328 12.7079 6.34985 12.7079C7.61615 12.7079 8.88286 13.1901 9.84689 14.1541C11.7751 16.0824 11.7751 19.2199 9.84689 21.1482C7.9186 23.0761 4.78097 23.0763 2.85282 21.1482ZM21.1443 9.84895L12.6619 18.3327C12.8594 16.4872 12.2528 14.5712 10.8413 13.1597C9.42955 11.7479 7.51307 11.1413 5.66732 11.3391L14.1502 2.85482C16.0785 0.926528 19.216 0.926528 21.1443 2.85482C22.0784 3.7889 22.5928 5.03086 22.5928 6.35186C22.5928 7.67286 22.0784 8.91478 21.1443 9.84895Z" fill="black"/>
</g>
<defs>
<clipPath id="clip0_1309_1593">
<rect width="24" height="24" fill="white"/>
</clipPath>
</defs>
</svg>
