<svg width="24" height="24" viewBox="0 0 24 24" fill="none" xmlns="http://www.w3.org/2000/svg">
<g clip-path="url(#clip0_1309_1488)">
<path d="M11.9999 4.6394C7.94118 4.6394 4.63916 7.94137 4.63916 12.0001C4.63916 16.0588 7.94118 19.3608 11.9999 19.3608C16.0586 19.3608 19.3606 16.0588 19.3606 12.0001C19.3606 7.94137 16.0586 4.6394 11.9999 4.6394ZM11.9999 17.9545C8.71658 17.9545 6.04541 15.2834 6.04541 12.0001C6.04541 8.71678 8.71658 6.04565 11.9999 6.04565C15.2832 6.04565 17.9543 8.71678 17.9543 12.0001C17.9543 15.2834 15.2832 17.9545 11.9999 17.9545Z" fill="black"/>
<path d="M22.2414 9.28172C21.9998 8.37033 21.6385 7.49986 21.1632 6.684L22.1505 5.17992L18.8196 1.84903L17.3174 2.83758C16.5017 2.36227 15.6311 2.00077 14.7199 1.75898L14.3549 0H9.64439L9.28172 1.75861C8.37084 2.00011 7.5008 2.36114 6.68545 2.83589L5.17941 1.85006L1.8495 5.17992L2.83673 6.684C2.36208 7.49892 2.00105 8.36831 1.75936 9.27858L0 9.64575V14.3549L1.75898 14.7199C2.00053 15.6302 2.36142 16.4996 2.83594 17.3146L1.85006 18.8206L5.17997 22.1505L6.68405 21.1632C7.49892 21.6379 8.36831 21.9989 9.27858 22.2405L9.64575 24H14.3549L14.7199 22.241C15.6307 21.9993 16.5007 21.6382 17.316 21.1633L18.8201 22.1505L22.151 18.8196L21.1624 17.3175C21.6377 16.5018 21.9992 15.6312 22.2411 14.7199L24 14.3549V9.64434L22.2414 9.28172ZM22.5938 13.2105L21.0735 13.5259L20.9758 13.9711C20.7429 15.0325 20.3265 16.0351 19.7381 16.9512L19.491 17.3359L20.3463 18.6355L18.6349 20.3469L17.3336 19.4927L16.9495 19.7393C16.0338 20.327 15.0317 20.7431 13.971 20.9759L13.5259 21.0735L13.2105 22.5938H10.7888L10.4714 21.073L10.0269 20.9754C8.96695 20.7426 7.96552 20.3267 7.05047 19.7393L6.66638 19.4927L5.36503 20.3469L3.65264 18.6345L4.50567 17.3314L4.25958 16.9478C3.67238 16.0327 3.25673 15.0311 3.02414 13.9711L2.9265 13.5259L1.40625 13.2105V10.7888L2.92702 10.4714L3.02466 10.0269C3.25744 8.96705 3.67331 7.96556 4.2608 7.05052L4.50736 6.66642L3.6532 5.36508L5.36559 3.65269L6.66877 4.50577L7.0523 4.25967C7.968 3.67214 8.97019 3.25636 10.031 3.02381L10.4769 2.92608L10.7902 1.40625H13.2105L13.5259 2.92655L13.9711 3.02423C15.0325 3.25711 16.0351 3.6735 16.9512 4.26188L17.3359 4.50895L18.6355 3.65367L20.3469 5.36508L19.4927 6.66642L19.7393 7.05052C20.3274 7.96678 20.7436 8.96953 20.9763 10.0309L21.074 10.4768L22.5938 10.7902V13.2105Z" fill="black"/>
<path d="M14.005 9.49986C14.005 8.39431 13.1056 7.49487 12 7.49487C10.8945 7.49487 9.99502 8.39431 9.99502 9.49986V10.7202H8.68262V15.3801H15.3174V10.7202H14.005L14.005 9.49986ZM11.4013 9.49986C11.4013 9.16972 11.6699 8.90112 12 8.90112C12.3301 8.90112 12.5987 9.16972 12.5987 9.49986V10.7202H11.4012V9.49986H11.4013ZM13.9111 13.9738H10.0889V12.1265H13.9111V13.9738Z" fill="black"/>
</g>
<defs>
<clipPath id="clip0_1309_1488">
<rect width="24" height="24" fill="white"/>
</clipPath>
</defs>
</svg>
