<svg width="24" height="24" viewBox="0 0 24 24" fill="none" xmlns="http://www.w3.org/2000/svg">
<g clip-path="url(#clip0_1309_1856)">
<path d="M16.9721 10.4566H19.8731C20.1633 11.2736 20.9437 11.8603 21.8589 11.8603C23.0206 11.8603 23.9657 10.9152 23.9657 9.75347C23.9657 8.59177 23.0206 7.64663 21.8589 7.64663C20.9437 7.64663 20.1633 8.23341 19.8731 9.05034H16.9721V7.77956C16.9721 7.39125 16.6573 7.07644 16.269 7.07644H14.486V5.01455H17.2392C17.5294 5.83153 18.3098 6.41827 19.225 6.41827C20.3867 6.41827 21.3318 5.47312 21.3318 4.31142C21.3318 3.14972 20.3867 2.20453 19.225 2.20453C18.3098 2.20453 17.5294 2.79131 17.2392 3.60825H13.7829C13.3946 3.60825 13.0798 3.92306 13.0798 4.31137V7.07639H10.8329V4.09261C11.6499 3.80245 12.2366 3.02208 12.2366 2.10684C12.2366 0.945141 11.2915 0 10.1297 0C8.96799 0 8.0229 0.945141 8.0229 2.10684C8.0229 3.02208 8.60968 3.80245 9.42662 4.09261V7.07644H7.59962C7.2113 7.07644 6.89649 7.39125 6.89649 7.77956V9.05034H4.88635V6.29719C5.70334 6.00703 6.29007 5.22666 6.29007 4.31142C6.29007 3.14967 5.34493 2.20458 4.18323 2.20458C3.02152 2.20458 2.07638 3.14967 2.07638 4.31142C2.07638 5.22666 2.66316 6.00703 3.48015 6.29719V9.75347C3.48015 10.1418 3.79496 10.4566 4.18327 10.4566H6.89654V13.6564H4.12679C3.83663 12.8394 3.05626 12.2527 2.14102 12.2527C0.979273 12.2527 0.0341797 13.1978 0.0341797 14.3595C0.0341797 15.5213 0.97932 16.4664 2.14102 16.4664C3.05626 16.4664 3.83663 15.8796 4.12679 15.0627H6.89654V16.39C6.89654 16.7783 7.21135 17.0931 7.59966 17.0931H9.42666V19.1033H6.67346C6.3833 18.2863 5.60293 17.6995 4.68769 17.6995C3.52594 17.6995 2.58085 18.6447 2.58085 19.8064C2.58085 20.9681 3.52599 21.9132 4.68769 21.9132C5.60293 21.9132 6.3833 21.3264 6.67346 20.5095H10.1298C10.5181 20.5095 10.8329 20.1947 10.8329 19.8064V17.0931H13.0968V19.9074C12.2799 20.1975 11.6931 20.9779 11.6931 21.8932C11.6931 23.0549 12.6383 24 13.8 24C14.9617 24 15.9068 23.0549 15.9068 21.8932C15.9068 20.9779 15.32 20.1975 14.5031 19.9074V17.0931H16.269C16.6573 17.0931 16.9721 16.7783 16.9721 16.39V15.0627H18.1418C18.432 15.8797 19.2124 16.4664 20.1276 16.4664C21.2893 16.4664 22.2345 15.5213 22.2345 14.3595C22.2345 13.1978 21.2893 12.2527 20.1276 12.2527C19.2124 12.2527 18.432 12.8395 18.1418 13.6564H16.9721V10.4566ZM21.8589 9.05288C22.2452 9.05288 22.5595 9.36717 22.5595 9.75347C22.5595 10.1398 22.2452 10.4541 21.8589 10.4541C21.4726 10.4541 21.1583 10.1398 21.1583 9.75347C21.1583 9.36717 21.4726 9.05288 21.8589 9.05288ZM19.225 3.61078C19.6113 3.61078 19.9256 3.92508 19.9256 4.31137C19.9256 4.69767 19.6113 5.01197 19.225 5.01197C18.8387 5.01197 18.5244 4.69767 18.5244 4.31137C18.5244 3.92508 18.8387 3.61078 19.225 3.61078ZM10.1297 1.40625C10.516 1.40625 10.8303 1.72055 10.8303 2.10684C10.8303 2.49314 10.516 2.80744 10.1297 2.80744C9.74345 2.80744 9.42915 2.49314 9.42915 2.10684C9.42915 1.72055 9.74345 1.40625 10.1297 1.40625ZM4.18327 3.61078C4.56957 3.61078 4.88387 3.92508 4.88387 4.31137C4.88387 4.69767 4.56957 5.01197 4.18327 5.01197C3.79693 5.01197 3.48263 4.69767 3.48263 4.31137C3.48263 3.92508 3.79693 3.61078 4.18327 3.61078ZM2.14102 15.0601C1.75473 15.0601 1.44043 14.7458 1.44043 14.3595C1.44043 13.9733 1.75473 13.659 2.14102 13.659C2.52732 13.659 2.84162 13.9733 2.84162 14.3595C2.84162 14.7458 2.52732 15.0601 2.14102 15.0601ZM4.68765 20.507C4.30135 20.507 3.98705 20.1927 3.98705 19.8064C3.98705 19.4201 4.30135 19.1058 4.68765 19.1058C5.07394 19.1058 5.38824 19.4201 5.38824 19.8064C5.38824 20.1927 5.07394 20.507 4.68765 20.507ZM13.8 22.5938C13.4137 22.5938 13.0994 22.2795 13.0994 21.8932C13.0994 21.5069 13.4137 21.1926 13.8 21.1926C14.1863 21.1926 14.5006 21.5069 14.5006 21.8932C14.5006 22.2795 14.1863 22.5938 13.8 22.5938ZM20.1277 13.659C20.514 13.659 20.8283 13.9733 20.8283 14.3595C20.8283 14.7458 20.514 15.0601 20.1277 15.0601C19.7414 15.0601 19.4271 14.7458 19.4271 14.3595C19.4271 13.9733 19.7413 13.659 20.1277 13.659ZM15.5658 15.6869H8.30274V8.48269H15.5658V15.6869Z" fill="black"/>
<path d="M10.3235 14.3985H13.6009C13.9893 14.3985 14.3041 14.0837 14.3041 13.6954V10.418C14.3041 10.0297 13.9893 9.71484 13.6009 9.71484H10.3235C9.93517 9.71484 9.62036 10.0297 9.62036 10.418V13.6954C9.62036 14.0837 9.93517 14.3985 10.3235 14.3985ZM11.0266 11.1211H12.8978V12.9923H11.0266V11.1211Z" fill="black"/>
</g>
<defs>
<clipPath id="clip0_1309_1856">
<rect width="24" height="24" fill="white"/>
</clipPath>
</defs>
</svg>
