<svg width="24" height="24" viewBox="0 0 24 24" fill="none" xmlns="http://www.w3.org/2000/svg">
<g clip-path="url(#clip0_1309_2063)">
<path d="M22.0574 6.17956C22.0451 5.5316 22.0333 4.91947 22.0333 4.32728C22.0333 3.86335 21.6573 3.48722 21.1933 3.48722C17.6006 3.48722 14.8653 2.45473 12.5852 0.237863C12.259 -0.0793438 11.74 -0.0792318 11.4139 0.237863C9.13413 2.45473 6.39922 3.48722 2.80678 3.48722C2.34285 3.48722 1.96672 3.86335 1.96672 4.32728C1.96672 4.91958 1.95507 5.53193 1.94264 6.18001C1.8275 12.2101 1.66979 20.4686 11.7244 23.9537C11.8136 23.9846 11.9066 24.0001 11.9995 24.0001C12.0925 24.0001 12.1856 23.9846 12.2746 23.9537C22.33 20.4685 22.1726 12.2098 22.0574 6.17956ZM11.9996 22.2685C3.37646 19.136 3.50684 12.2738 3.62254 6.21205C3.62949 5.84824 3.63621 5.49564 3.64091 5.14998C7.00564 5.00796 9.6963 3.98835 11.9996 1.98183C14.3032 3.98835 16.9943 5.00807 20.3593 5.14998C20.364 5.49553 20.3707 5.84791 20.3776 6.21149C20.4932 12.2735 20.6235 19.1359 11.9996 22.2685Z" fill="black"/>
<path d="M14.8924 9.08194L10.8378 13.1363L9.1076 11.4061C8.77952 11.0781 8.2476 11.0781 7.91964 11.4061C7.59157 11.7343 7.59157 12.2661 7.91964 12.5942L10.2438 14.9183C10.4078 15.0823 10.6228 15.1643 10.8378 15.1643C11.0527 15.1643 11.2678 15.0823 11.4318 14.9183L16.0802 10.27C16.4084 9.94193 16.4084 9.41001 16.0803 9.08205C15.7524 8.75398 15.2204 8.75386 14.8924 9.08194Z" fill="black"/>
</g>
<defs>
<clipPath id="clip0_1309_2063">
<rect width="24" height="24" fill="white"/>
</clipPath>
</defs>
</svg>
