<svg width="24" height="24" viewBox="0 0 24 24" fill="none" xmlns="http://www.w3.org/2000/svg">
<path d="M18.7001 9.65988C19.367 11.011 19.7256 12.4933 19.7501 13.9999C19.7492 15.3989 19.3698 16.7715 18.6523 17.9724C17.9347 19.1734 16.9056 20.1578 15.6741 20.8215C14.4426 21.4852 13.0545 21.8034 11.6568 21.7423C10.2592 21.6813 8.90408 21.2434 7.73509 20.4749C7.57166 20.364 7.45859 20.193 7.42043 19.9992C7.38227 19.8054 7.42209 19.6044 7.53126 19.4398C7.64043 19.2752 7.81012 19.1603 8.0035 19.1201C8.19688 19.0798 8.39832 19.1175 8.56409 19.2249C9.58319 19.8981 10.7787 20.2547 12.0001 20.2499C13.6571 20.248 15.2458 19.589 16.4175 18.4173C17.5892 17.2456 18.2482 15.6569 18.2501 13.9999C18.2242 12.7147 17.9141 11.4511 17.3421 10.2999C17.3001 10.2107 17.276 10.1141 17.2713 10.0157C17.2666 9.91722 17.2814 9.8188 17.3147 9.72603C17.348 9.63327 17.3993 9.54797 17.4656 9.47503C17.5319 9.40208 17.6119 9.34291 17.7011 9.30088C17.7903 9.25886 17.8868 9.23481 17.9853 9.23011C18.0838 9.22541 18.1822 9.24015 18.2749 9.27348C18.3677 9.30682 18.453 9.3581 18.5259 9.4244C18.5989 9.4907 18.6581 9.57071 18.7001 9.65988ZM21.5301 3.52988L3.53009 21.5299C3.38792 21.6624 3.19987 21.7345 3.00557 21.7311C2.81127 21.7276 2.62588 21.6489 2.48847 21.5115C2.35106 21.3741 2.27234 21.1887 2.26892 20.9944C2.26549 20.8001 2.33761 20.6121 2.47009 20.4699L5.21909 17.7199C4.58678 16.5817 4.25339 15.3019 4.25009 13.9999C4.25009 7.68688 11.2661 2.59988 11.5641 2.38988C11.6912 2.29922 11.8435 2.25049 11.9996 2.25049C12.1557 2.25049 12.308 2.29922 12.4351 2.38988C13.97 3.54406 15.3577 4.88203 16.5671 6.37388L20.4671 2.47388C20.6093 2.3414 20.7973 2.26928 20.9916 2.27271C21.1859 2.27614 21.3713 2.35485 21.5087 2.49226C21.6461 2.62967 21.7248 2.81506 21.7283 3.00936C21.7317 3.20366 21.6596 3.39171 21.5271 3.53388L21.5301 3.52988ZM6.32109 16.6179L15.5001 7.43688C14.4646 6.14839 13.291 4.97738 12.0001 3.94488C10.5171 5.12988 5.75009 9.29988 5.75009 13.9999C5.74863 14.9036 5.94345 15.7968 6.32109 16.6179Z" fill="black"/>
</svg>
